<svg width="374" height="1128" viewBox="0 0 374 1128" fill="none" xmlns="http://www.w3.org/2000/svg">
<g id="BobFront">
<g id="Legs">
<path id="Vector 24" d="M67.5 1094V1066.5H120V1094.01L67.5 1094Z" fill="white" stroke="black" stroke-width="1.5"/>
<path id="Vector 25" d="M243 1094.5V1067H295.5V1094.51L243 1094.5Z" fill="white" stroke="black" stroke-width="1.5"/>
<path id="Vector 22" d="M59 1066.5L57 870L142 884.5L136 1066C107.482 1080.89 90.6399 1081.14 59 1066.5Z" fill="#7C736C" stroke="black" stroke-width="1.5"/>
<path id="Vector 23" d="M307 1066.5L309 870L224 884.5L230 1066C258.518 1080.89 275.36 1081.14 307 1066.5Z" fill="#7C736C" stroke="black" stroke-width="1.5"/>
<path id="Vector 26" d="M36 1087C12.0768 1101.75 6 1107.5 6 1115.5C6 1123.5 18.5 1127 28 1127C37.5 1127 69.7237 1121.3 88 1110C92.6511 1106.61 96.1845 1105.56 105 1106C115.195 1105.53 125 1099.5 125.5 1096.5C126 1093.5 125 1085.5 125.5 1082C126 1078.5 123.575 1076.48 120 1078.5C108.904 1084.54 103.594 1086.28 96 1086C86.7194 1085.66 80.3243 1082.66 67.5 1074C58.5841 1072.88 55.106 1073.34 51.5 1076C46.1048 1080.53 42.7129 1082.92 36 1087Z" fill="black" stroke="black"/>
<path id="Vector 27" d="M327.644 1086.57C351.568 1101.32 357.644 1107.07 357.644 1115.07C357.644 1123.07 345.144 1126.57 335.644 1126.57C326.144 1126.57 293.921 1120.87 275.644 1109.57C270.993 1106.18 267.46 1105.13 258.644 1105.57C248.449 1105.1 238.644 1099.07 238.144 1096.07C237.644 1093.07 238.644 1085.07 238.144 1081.57C237.644 1078.07 240.07 1076.06 243.644 1078.07C254.74 1084.11 260.05 1085.85 267.644 1085.57C276.925 1085.23 283.32 1082.24 296.144 1073.57C305.06 1072.45 308.538 1072.91 312.144 1075.57C317.54 1080.1 320.931 1082.5 327.644 1086.57Z" fill="black" stroke="black"/>
</g>
<g id="Body">
<path id="Vector 12" d="M223 292L140 291C122.994 291.201 115.743 294.015 107 304C67.7857 331.638 50.6262 354.748 30.5 412.5C44.6741 425.203 56.9615 427.651 84 426.5C69.9978 518.594 51.5 606 44 658C36.5 710 30.1745 780.1 31 863.5C142.827 892.733 209.76 894.808 339.5 863.5C337.34 779.08 337.297 731.422 328 649C312.036 550.522 303.796 502.872 290 427.5C314.188 425.033 326.88 421.359 347.5 409.5C331.223 381.222 321.576 365.492 302 338C275.909 307.593 254.5 290 242 290C229.5 290 231.594 292.272 223 292Z" fill="#F0F0F0" stroke="black" stroke-width="1.5"/>
<path id="Vector 60" d="M134 364.5L134.5 291H140C158 306.5 204.5 305.5 222.5 292C226.22 291.92 230.882 290.728 238 290V369C208.5 375 167 375 134 364.5Z" fill="#C4C4C4" stroke="black" stroke-width="1.5"/>
<path id="Vector 61" d="M84 426.5L71.5 501.5C95 465 106.916 415.102 107 304C68.54 330.899 51.22 353.627 30.5 412.5C44 424 59.5 428.5 84 426.5Z" fill="#C4C4C4" stroke="black" stroke-width="1.5"/>
<path id="Vector 62" d="M290 427.5L302.5 497.5C267 467.5 264 402 267 303C300.5 325 331.5 384.5 347.5 409.5C334 421 299.5 427 290 427.5Z" fill="#C4C4C4" stroke="black" stroke-width="1.5"/>
<path id="Vector 14" d="M38 408C46.9073 414.255 51.94 416.122 61 416" stroke="black" stroke-width="1.5"/>
<path id="Vector 13" d="M84 427C87.7701 414.34 89.5 403.5 90 399.5" stroke="black" stroke-width="1.5"/>
<path id="Vector 15" d="M160 306.5C177.659 315.196 186.872 315.418 202 307" stroke="black" stroke-width="1.5"/>
<path id="Vector 16" d="M307 415.5C316.087 415.734 321.141 414.623 330 408" stroke="black" stroke-width="1.5"/>
<path id="Vector 17" d="M285.5 400L290 428" stroke="black" stroke-width="1.5"/>
<path id="Vector 18" d="M72 501C96.5 463.5 107 407.5 107 304" stroke="black" stroke-width="1.5"/>
<path id="Vector 19" d="M267 303C262.752 445.864 277.5 476.5 302.5 497.5" stroke="black" stroke-width="1.5"/>
<path id="Vector 20" d="M134.5 291.5L133.5 364.5C172.118 374.683 195.125 375.721 238.5 369.5V290" stroke="black" stroke-width="1.5"/>
<path id="Vector 21" d="M193 397C189.5 397 189 397.5 189 401V458C189 461.5 197.5 466 214 466C230.5 466 241 462 241 458V402C241 398 240 397 236 397H193Z" stroke="black" stroke-width="1.5"/>
</g>
<g id="Head">
<path id="Vector 11" d="M139 245H225C259.5 193.5 272 193.5 272 122C270.399 92.6282 268.662 76.4448 251 52.5C257.517 48.1097 264.873 43.8869 266 35C254.531 40.7984 243.471 42.6171 233 41C236.972 37.8609 244.561 35.397 244.5 24C238.491 28.8926 229.799 31.0039 221 32.5C228 24 229.5 9 229.5 9C213 23 198.5 25 198.5 25C203.33 17.5935 212.743 12.2969 214 2C202.5 11 160.5 9 135 38.5C125.136 51.4671 111 59.5 106 68C101 76.5 97.5814 91.2536 97 124.5C98.5 201 127 201 139 245Z" fill="black" stroke="black" stroke-width="1.5"/>
<path id="Vector 1" d="M223 291C207.5 306.5 156 307.5 140 291L139 244C139 192.5 110 199 111 156C112.458 130.445 120.5 119 125 96C129.5 73 130 64 130 64C130.995 59.7614 132.525 59.0986 137 61C175.059 73.299 196.068 72.8555 233 60C237.467 58.5147 238.5 59.5 240 63C241.5 66.5 244 87.5 247 98C250 108.5 260 127 261 145C262 163 258 174 258 174C250 196.5 230.5 210 225 244L223 291Z" fill="#FFB377" stroke="black" stroke-width="1.5"/>
<path id="Vector 2" d="M138 81C144.148 77.6401 148.846 77.0887 159 78" stroke="black" stroke-width="2"/>
<path id="Vector 3" d="M216 80.5C226.793 80.1936 231.048 81.1226 235 85" stroke="black" stroke-width="2"/>
<path id="Ellipse 1" d="M170.25 114C170.25 126.449 162.159 136.25 152.5 136.25C142.841 136.25 134.75 126.449 134.75 114C134.75 101.551 142.841 91.75 152.5 91.75C162.159 91.75 170.25 101.551 170.25 114Z" fill="white" stroke="black" stroke-width="1.5"/>
<path id="Ellipse 2" d="M240.25 116C240.25 128.449 232.159 138.25 222.5 138.25C212.841 138.25 204.75 128.449 204.75 116C204.75 103.551 212.841 93.75 222.5 93.75C232.159 93.75 240.25 103.551 240.25 116Z" fill="white" stroke="black" stroke-width="1.5"/>
<ellipse id="Ellipse 3" cx="153" cy="119.5" rx="3" ry="3.5" fill="black"/>
<ellipse id="Ellipse 4" cx="223" cy="120.5" rx="3" ry="3.5" fill="black"/>
<path id="Vector 4" d="M143 141C150.992 143.146 154.573 142.923 160 141" stroke="black"/>
<path id="Vector 5" d="M216 143C220.862 144.506 223.484 144.463 228 143" stroke="black"/>
<path id="Vector 6" d="M171 141C171 141 166.5 171 186.5 171C206.5 171 203 141 203 141" stroke="black" stroke-width="1.5"/>
<path id="Vector 7" d="M172 231C180.691 234.256 184.953 234.516 191 231" stroke="black" stroke-width="2"/>
<path id="Vector 8" d="M175 195C179.723 196.384 182.351 196.396 187 195" stroke="black" stroke-width="1.5"/>
<path id="Vector 9" d="M128 182C150.5 189.5 212.5 190 237 184" stroke="black" stroke-width="1.5"/>
<path id="Vector 10" d="M118 170C118 154 134.99 152.013 170.5 151C171.331 166.598 175.774 169.666 186.5 171.5C197.483 169.632 201.929 164.926 203.5 151C247.55 153.863 254 158.5 254 171C254 178 251.318 178.205 247.5 178C221.222 175.472 207.748 174.849 186.5 175.5C166.756 174.787 155.105 174.689 130.5 176.5C124.64 176.652 118 176.5 118 170Z" fill="black" stroke="black"/>
</g>
<g id="Arms">
<path id="Vector 28" d="M84 426.5C62.3438 427.753 51.584 426.335 36.5 417.5C27.978 444.99 24.3638 468.672 18 511.5C9.90101 556.623 6.6356 582.275 2.5 628.5L1.5 678C3.50953 695.11 6.79495 701.746 16 709C17.7349 709.811 18.4606 709.91 19 709C22.9879 714.658 26 716.5 31 718.5C36 720.5 34 714 34 714C37.5 719 40.1249 717.199 40.5 714C40.8751 710.801 40.7549 706.884 40.5 706C35.3694 692.915 35.5 681 35.5 677C35.5 673 38 673.5 39.5 677C41 680.5 45.5 690.5 48 695C50.5 699.5 53 698.5 53.5 692C54 685.5 54.5 671.5 54.5 671.5C54.3796 664.47 54 663.5 51.5 658.5C49 653.5 50.5 645.5 50.5 639.5C50.5 633.5 48.5 612 49 602C49.5 592 70.071 492.766 84 426.5Z" fill="#FFB377" stroke="black" stroke-width="1.5"/>
<path id="Vector 29" d="M290 427.5C314 425.5 328 419.5 341 414C348 448.5 351.136 467.672 357.5 510.5C365.599 555.623 369 582 371.5 628L372.5 677.5C370.49 694.61 367.205 701.246 358 708.5C356.265 709.311 355.539 709.41 355 708.5C351.012 714.158 348 716 343 718C338 720 340 713.5 340 713.5C336.5 718.5 333.875 716.699 333.5 713.5C333.125 710.301 333.245 706.384 333.5 705.5C338.631 692.415 338.5 680.5 338.5 676.5C338.5 672.5 336 673 334.5 676.5C333 680 328.5 690 326 694.5C323.5 699 321 698 320.5 691.5C320 685 319.5 671 319.5 671C319.62 663.97 320 663 322.5 658C325 653 325.5 645.5 325.5 639.5C325.5 633.5 329.5 615.5 327 601C324.5 586.5 304.5 482.5 290 427.5Z" fill="#FFB377" stroke="black" stroke-width="1.5"/>
<path id="Vector 30" d="M40 441C38.0898 449.523 37.4854 454.838 37 465" stroke="black"/>
<path id="Vector 43" d="M332 434C333.91 442.523 334.515 447.838 335 458" stroke="black"/>
<path id="Vector 31" d="M47 458C45.2156 465.423 44.492 469.842 43.5 478" stroke="black"/>
<path id="Vector 44" d="M325 451C326.784 458.423 327.508 462.842 328.5 471" stroke="black"/>
<path id="Vector 32" d="M58 452C56.581 460.223 56.1315 465.121 55.5 474" stroke="black"/>
<path id="Vector 45" d="M314 445C315.419 453.223 315.869 458.121 316.5 467" stroke="black"/>
<path id="Vector 33" d="M33 496C31.5952 505.415 30.4189 510.664 28 520" stroke="black"/>
<path id="Vector 46" d="M339 489C340.405 498.415 341.581 503.664 344 513" stroke="black"/>
<path id="Vector 34" d="M47 501.5L45 516" stroke="black"/>
<path id="Vector 47" d="M325 494.5L327 509" stroke="black"/>
<path id="Vector 35" d="M55 505.5L52.5 520" stroke="black"/>
<path id="Vector 48" d="M317 498.5L319.5 513" stroke="black"/>
<path id="Vector 36" d="M19 548L16 562" stroke="black"/>
<path id="Vector 49" d="M353 541L356 555" stroke="black"/>
<path id="Vector 37" d="M28 558L25.5 578" stroke="black"/>
<path id="Vector 50" d="M344 551L346.5 571" stroke="black"/>
<path id="Vector 38" d="M34 567L37 552" stroke="black"/>
<path id="Vector 51" d="M338 560L335 545" stroke="black"/>
<path id="Vector 39" d="M46 556L43 571" stroke="black"/>
<path id="Vector 52" d="M326 549L329 564" stroke="black"/>
<path id="Vector 40" d="M13 595L10.5 608" stroke="black"/>
<path id="Vector 53" d="M359 588L361.5 601" stroke="black"/>
<path id="Vector 41" d="M20 602L22 591" stroke="black"/>
<path id="Vector 54" d="M352 595L350 584" stroke="black"/>
<path id="Vector 42" d="M34 584L31.5 601" stroke="black"/>
<path id="Vector 55" d="M338 577L340.5 594" stroke="black"/>
<path id="Vector 56" d="M34.5 715C24.3318 701.453 20.5142 692.465 17 674" stroke="black" stroke-width="1.5"/>
<path id="Vector 57" d="M8.5 676C11.6438 693.129 14.1431 700.145 19.5 709.5" stroke="black" stroke-width="1.5"/>
<path id="Vector 58" d="M339.5 714.5C351.586 702.153 356.504 693.457 358 671" stroke="black" stroke-width="1.5"/>
<path id="Vector 59" d="M355 708.5C362.853 698.674 366.13 691.43 367.5 674.5" stroke="black" stroke-width="1.5"/>
</g>
</g>
</svg>
