<svg width="269" height="1114" viewBox="0 0 269 1114" fill="none" xmlns="http://www.w3.org/2000/svg">
<g id="LindaFront">
<g id="Feet">
<path id="Vector 21" d="M70.5 1063C72.1902 1053.15 73.2295 1047.67 77 1039H95C98.5881 1041.42 100 1043.5 100 1048V1078L70.5 1063Z" fill="white" stroke="black" stroke-width="1.5"/>
<path id="Vector 22" d="M195.5 1063C193.81 1053.15 192.771 1047.67 189 1039H171C167.412 1041.42 166 1043.5 166 1048V1078L195.5 1063Z" fill="white" stroke="black" stroke-width="1.5"/>
<rect id="Rectangle 1" x="76.75" y="1009.75" width="18.5" height="29.5" fill="#FFB377" stroke="black" stroke-width="1.5"/>
<rect id="Rectangle 2" x="170.75" y="1009.75" width="18.5" height="29.5" fill="#FFB377" stroke="black" stroke-width="1.5"/>
<path id="Vector 23" d="M104 1093V1070C104 1068 104 1068 102 1068H91C87.1199 1061.08 81.7925 1059.17 69.5 1057.5C62.252 1069 57.0421 1074.77 46 1084C31.5 1094.5 23 1101.5 23 1109C23 1111.5 24.5 1113 27 1113C58.4545 1112.66 75.5185 1109.38 104 1093Z" fill="#EDD881" stroke="black" stroke-width="1.5"/>
<path id="Vector 24" d="M163 1092.5V1069.5C163 1067.5 163 1067.5 165 1067.5H176C179.88 1060.58 185.208 1058.67 197.5 1057C204.748 1068.5 209.958 1074.27 221 1083.5C235.5 1094 244 1101 244 1108.5C244 1111 242.5 1112.5 240 1112.5C208.546 1112.16 191.481 1108.88 163 1092.5Z" fill="#EDD881" stroke="black" stroke-width="1.5"/>
</g>
<g id="Head">
<path id="Vector 1" d="M109.265 236.5V325.5H171L173 238C203.011 212.305 221.861 192.851 214.265 149C218.69 82.8826 195.419 58.6559 147.265 44C84.3528 66.8256 70.0634 96.223 79.7653 154C87.0283 188.067 94.484 211.215 109.265 236.5Z" fill="#FFB377" stroke="black"/>
<path id="Vector 6" d="M105.5 108C112.689 104.392 118.513 103.403 133 104" stroke="black" stroke-width="2"/>
<path id="Vector 7" d="M192.5 108.162C185.311 104.554 179.487 103.565 165 104.162" stroke="black" stroke-width="2"/>
<path id="Vector 2" d="M76 311C89.6212 310.912 97.0786 308.459 110 299L110.5 234C108.44 219.848 106.379 212.579 101.5 200.5C85.5 170 82 155 101.5 121C121 87.0004 132 83 148 53.0002C163 80.5 182.5 95.5004 197 121C211.5 146.5 211.538 158.507 198 178C185.924 199.131 180.283 211.663 173.5 236L173 301.5C184.48 306.973 194.248 307.955 217 308C245.5 308.057 266.5 292 266.5 266C266.5 249 260.541 238.236 246 229C247.715 236.916 248.076 241.035 248 248C248.089 258.828 246 263 240.5 263C232.5 263 226 257.5 226 249C226 234 241 211 241 211C261.622 174.562 267.912 155.012 268 122C268 28 195 0.500183 178 0.500183C161 0.500183 153.552 1.98952 147.5 9.5002C142.77 3.37065 123 2.50019 123 2.50019C71.5 2.50019 28 60 28 126C28 153.482 32.007 169.7 47.5 200.5C56.1058 218.459 61.1904 228.081 64 256C64 263 62.5 265.5 55.5 265.5C49 265.5 48.0015 261.671 48 253C48.0081 245.809 48.2718 241.454 50.5 231.5C37.8437 237.442 31.5 245.501 29.5 267C27.5 288.5 50 311 76 311Z" fill="black" stroke="black"/>
<path id="Vector 4" d="M106 186C126 194.5 163 194.5 181 186" stroke="black" stroke-width="2" stroke-linecap="round"/>
<path id="Vector 8" d="M139 199C142.654 201.238 150.597 201.702 155 199" stroke="black" stroke-width="1.5" stroke-linecap="round"/>
<path id="Vector 9" d="M138 235C141.654 237.238 149.597 237.702 154 235" stroke="black" stroke-width="1.5" stroke-linecap="round"/>
<path id="Vector 5" d="M135 159C135 176 136 182 147 182C158.5 182 159 177 159 159" stroke="black" stroke-width="1.5"/>
<path id="Ellipse 1" d="M137.5 140.5C137.5 151.623 129.818 160.5 120.5 160.5C111.182 160.5 103.5 151.623 103.5 140.5C103.5 129.377 111.182 120.5 120.5 120.5C129.818 120.5 137.5 129.377 137.5 140.5Z" fill="white" stroke="black"/>
<path id="Ellipse 2" d="M193.5 139.5C193.5 150.623 185.818 159.5 176.5 159.5C167.182 159.5 159.5 150.623 159.5 139.5C159.5 128.377 167.182 119.5 176.5 119.5C185.818 119.5 193.5 128.377 193.5 139.5Z" fill="white" stroke="black"/>
<circle id="Ellipse 3" cx="121.5" cy="141.5" r="2.5" fill="black"/>
<circle id="Ellipse 4" cx="176.5" cy="141.5" r="2.5" fill="black"/>
<path id="Vector 11" d="M148.5 134.5H144M144 134.5C136.5 122.5 126.5 117 102 117C83 117 73 120 61 125C68.4279 148.931 86.5 172 105 172C121 172 138 156 144 134.5Z" stroke="#E35041" stroke-width="3"/>
<path id="Vector 12" d="M148 134.5H152.5M152.5 134.5C160 122.5 170 117 194.5 117C213.5 117 223.5 120 235.5 125C228.072 148.931 210 172 191.5 172C175.5 172 158.5 156 152.5 134.5Z" stroke="#E35041" stroke-width="3"/>
</g>
<g id="Legs">
<path id="Vector 19" d="M71 1017H100L110 840L63 838L71 1017Z" fill="#2F62AF" stroke="black" stroke-width="1.5"/>
<path id="Vector 20" d="M196 1019H167L157 842L204 840L196 1019Z" fill="#2F62AF" stroke="black" stroke-width="1.5"/>
<path id="Vector 15" d="M234.5 842.5C239.135 741.675 236.251 685.282 219 585C190 615.5 94.5 616.5 41 592C18.6464 684.19 14.8701 739.113 12 838.5C82.5 875.5 170 873.5 234.5 842.5Z" fill="white" stroke="black" stroke-width="1.5"/>
<path id="Vector 16" d="M87 655C68.3491 657.078 57.7007 656.612 37.5 645.5L29.5 726.5C45.4725 733.488 56.0785 734.872 77.5 733.5L87 655Z" stroke="black" stroke-width="1.5"/>
</g>
<g id="Hands">
<path id="Vector 17" d="M6.5 665.5C10.0832 648.554 12.1872 639.139 15 621.5L31.5 619L30.5 648.5C30.5 658 28.5 690.5 24.5 690.5C18.5 690.5 23.5 677.5 18.5 672C17.0556 677.562 16.5 684.337 16.5 690.5C16.5 704 18.5 707 18.5 709C18.5 712 16.5 717 13 717C8.5 717 0.5 707 0.5 692C0.5 685.5 4 677.5 6.5 665.5Z" fill="#FFB377" stroke="black"/>
<path id="Vector 18" d="M252 665.5C248.417 648.554 246.313 639.139 243.5 621.5L227 619L228 648.5C228 658 230 690.5 234 690.5C240 690.5 235 677.5 240 672C241.444 677.562 242 684.337 242 690.5C242 704 240 707 240 709C240 712 242 717 245.5 717C250 717 258 707 258 692C258 685.5 254.5 677.5 252 665.5Z" fill="#FFB377" stroke="black"/>
</g>
<g id="Body">
<path id="Vector 3" d="M174 310C156.5 325 122.5 324.5 108 310L89 332.5C45 375.527 30.9038 408.504 21.5 480.5C12.8962 531.342 11.2264 564.035 11 626C20.9733 627.116 26.4443 627.108 36 626L41.5 586C46.2247 524.625 52.5246 493.561 74.5 448C66.5884 507.617 60.0493 539.666 41 592C106.5 617.5 190.5 616 220 584C205.718 541.543 199.689 513.068 193.5 451.5C205.565 478.07 211.087 496.748 218 539L223 630C232.791 631.019 238.029 630.978 247 630C249.237 572.529 249.057 539.703 246 480C246 445.5 223 371.5 174 310Z" fill="#E35041" stroke="black" stroke-width="1.5"/>
<path id="Vector 10" d="M141.5 321V349" stroke="black" stroke-width="1.5"/>
<circle id="Ellipse 5" cx="134" cy="328" r="4.5" stroke="black"/>
<circle id="Ellipse 6" cx="134" cy="341" r="4.5" stroke="black"/>
<ellipse id="Ellipse 7" cx="71" cy="459.5" rx="14" ry="16.5" fill="#E35041"/>
<ellipse id="Ellipse 8" cx="193" cy="459.5" rx="14" ry="16.5" fill="#E35041"/>
<path id="Vector 13" d="M77 394C65.4797 414.68 54 439.5 54 455C54 471 70 483.5 93 475" stroke="black" stroke-width="1.5"/>
<path id="Vector 14" d="M187 394C198.52 414.68 210 439.5 210 455C210 471 194 483.5 171 475" stroke="black" stroke-width="1.5"/>
</g>
</g>
</svg>
