<svg width="369" height="466" viewBox="0 0 369 466" fill="none" xmlns="http://www.w3.org/2000/svg">
<g id="Loggernaut-Go">
<g id="LeftFoot">
<path id="Vector 2" d="M75 462C79 459 91 447 106 441L79 424C73.2656 426.59 67.5 430 62 436C56.5 442 55.5 448 56 452C56.5 456 62 460 65 462C68 464 71 465 75 462Z" fill="#F6D29F" stroke="black" stroke-width="3"/>
<path id="Vector 3" d="M62 459C62.9201 452.595 64.443 450.091 69 444" stroke="black" stroke-width="3" stroke-linecap="round" stroke-linejoin="round"/>
</g>
<g id="RightFoot">
<path id="Vector 2_2" d="M298 458C294 455 282 443 267 437L294 420C299.734 422.59 305.5 426 311 432C316.5 438 317.5 444 317 448C316.5 452 311 456 308 458C305 460 302 461 298 458Z" fill="#F6D29F" stroke="black" stroke-width="3"/>
<path id="Vector 3_2" d="M311 455C310.08 448.595 308.557 446.091 304 440" stroke="black" stroke-width="3" stroke-linecap="round"/>
</g>
<g id="LeftEar">
<path id="Vector 9" d="M27 61C27 73.5 35.6132 83.166 49 89L79 35C73.0724 30.7349 69.5 29 61 29C41.5 29 27 45 27 61Z" fill="#69D7E0" stroke="black" stroke-width="3"/>
<circle id="Ellipse 6" cx="57" cy="60" r="12" fill="black"/>
</g>
<g id="RightEar">
<path id="Vector 9_2" d="M335 56C335 68.5 326.387 78.166 313 84L283 30C288.928 25.7349 292.5 24 301 24C320.5 24 335 40 335 56Z" fill="#69D7E0" stroke="black" stroke-width="3"/>
<circle id="Ellipse 6_2" r="12" transform="matrix(-1 0 0 1 305 55)" fill="black"/>
</g>
<g id="Body">
<path id="Vector 1" d="M182 2.49993C86.5 5.49993 43.6649 49.4298 46 127.5C48.3351 205.57 50.5 256 46.5 335C42.5 414 95.5 457 187.5 456C279.5 455 332.5 405.5 328 307C323.5 208.5 326.838 237 323 140.5C319.162 44 277.5 -0.500065 182 2.49993Z" fill="#69D7E0" stroke="black" stroke-width="4"/>
</g>
<g id="LeftEye">
<path id="Ellipse 1" d="M125.502 113.728H125.5C101.651 113.728 82.5 95.722 82.5 73.7275C82.5 51.6439 100.744 32.7275 124.5 32.7275H124.566L124.632 32.7217C138.255 31.5149 149.09 35.3003 156.437 42.3858C163.793 49.4792 167.819 60.0389 167.5 72.6898C166.929 95.4262 150.382 113.766 125.502 113.728Z" fill="white" stroke="black" stroke-width="3"/>
<g id="Ellipse 3">
<ellipse cx="103.997" cy="73.2275" rx="13" ry="14.5" fill="black"/>
<ellipse cx="103.997" cy="73.2275" rx="13" ry="14.5" fill="black"/>
<ellipse cx="103.997" cy="73.2275" rx="13" ry="14.5" fill="black"/>
<ellipse cx="103.997" cy="73.2275" rx="13" ry="14.5" fill="black"/>
</g>
<ellipse id="Ellipse 4" cx="110.497" cy="76.7275" rx="3.5" ry="4" fill="white"/>
</g>
<g id="RightEye">
<path id="Ellipse 1_2" d="M233.502 107.728H233.5C209.651 107.728 190.5 89.722 190.5 67.7275C190.5 45.6439 208.744 26.7275 232.5 26.7275H232.566L232.632 26.7217C246.255 25.5149 257.09 29.3003 264.437 36.3858C271.793 43.4792 275.819 54.0389 275.5 66.6898C274.929 89.4262 258.382 107.766 233.502 107.728Z" fill="white" stroke="black" stroke-width="3"/>
<g id="Ellipse 3_2">
<ellipse cx="211.997" cy="71.2275" rx="13" ry="14.5" fill="black"/>
<ellipse cx="211.997" cy="71.2275" rx="13" ry="14.5" fill="black"/>
<ellipse cx="211.997" cy="71.2275" rx="13" ry="14.5" fill="black"/>
<ellipse cx="211.997" cy="71.2275" rx="13" ry="14.5" fill="black"/>
</g>
<ellipse id="Ellipse 4_2" cx="217.497" cy="73.7275" rx="3.5" ry="4" fill="white"/>
</g>
<g id="Nose">
<path id="Vector 5" d="M162 154V141C168.176 135.727 172.43 134.191 182 135V159C175 169.5 165 168.5 162 154Z" fill="white" stroke="black" stroke-width="3"/>
<path id="Vector 6" d="M202 153.203V140.203C195.824 134.93 191.57 133.393 182 134.203V158.203C186.5 170.5 202 170.824 202 153.203Z" fill="white" stroke="black" stroke-width="3"/>
<path id="Vector 4" d="M161 141C170 141 172 135 183 135C194 135 198.5 141 208 141C213.228 141 219 134.5 219 129C219 122.238 208 112 201 111H165C156.325 114.443 150 120.5 150 128C150 135.762 156 141 161 141Z" fill="#F6D29F" stroke="black" stroke-width="3"/>
<path id="Ellipse 5" d="M202 108C202 114.627 193.493 120 183 120C172.024 120.654 163.435 115.393 164 108C164 101.373 172.507 96 183 96C193.736 95.233 202.236 100.629 202 108Z" fill="black"/>
</g>
<g id="LeftHand">
<path id="Vector 7" d="M17 264C19.5 253.5 30.7159 248.104 48 247.5V269C42 269 36.5 278 29 278C21.5 278 21 269 21 269C17.5481 267.69 16.6314 266.61 17 264Z" fill="#F6D29F" stroke="black" stroke-width="3"/>
<path id="Vector 8" d="M21 269C24.4601 268.148 25.6795 267.212 27 265" stroke="black" stroke-width="3" stroke-linecap="round"/>
</g>
<g id="RightHand">
<path id="Vector 7_2" d="M357 229C354.5 239.5 343.284 244.896 326 245.5V224C332 224 337.5 215 345 215C352.5 215 353 224 353 224C356.452 225.31 357.369 226.39 357 229Z" fill="#F6D29F" stroke="black" stroke-width="3"/>
<path id="Vector 8_2" d="M353 224C349.54 224.852 348.32 225.788 347 228" stroke="black" stroke-width="3" stroke-linecap="round"/>
</g>
<g id="Log">
<g id="Union">
<mask id="path-24-inside-1" fill="white">
<path fill-rule="evenodd" clip-rule="evenodd" d="M36.0566 276.195C16.1431 286.092 8.04257 310.298 17.9636 330.26C27.8846 350.222 52.0702 358.382 71.9838 348.485C71.994 348.48 72.0043 348.475 72.0146 348.47L342.408 214.087L306.481 141.798L36.0566 276.195Z"/>
</mask>
<path fill-rule="evenodd" clip-rule="evenodd" d="M36.0566 276.195C16.1431 286.092 8.04257 310.298 17.9636 330.26C27.8846 350.222 52.0702 358.382 71.9838 348.485C71.994 348.48 72.0043 348.475 72.0146 348.47L342.408 214.087L306.481 141.798L36.0566 276.195Z" fill="#583E17"/>
<path d="M36.0566 276.195L38.2819 280.673L36.0566 276.195ZM72.0146 348.47L69.7893 343.992L69.7856 343.994L72.0146 348.47ZM342.408 214.087L344.634 218.565L349.111 216.34L346.886 211.862L342.408 214.087ZM306.481 141.798L310.959 139.572L308.733 135.095L304.256 137.32L306.481 141.798ZM22.4411 328.035C13.7439 310.535 20.8515 289.336 38.2819 280.673L33.8313 271.718C11.4346 282.849 2.3412 310.061 13.4861 332.485L22.4411 328.035ZM69.7585 344.008C52.3282 352.67 31.1383 345.535 22.4411 328.035L13.4861 332.485C24.6309 354.91 51.8123 364.094 74.209 352.963L69.7585 344.008ZM69.7856 343.994C69.7765 343.999 69.7675 344.003 69.7585 344.008L74.209 352.963C74.2206 352.957 74.2321 352.951 74.2436 352.946L69.7856 343.994ZM340.183 209.61L69.7893 343.992L74.2399 352.947L344.634 218.565L340.183 209.61ZM302.004 144.023L337.931 216.313L346.886 211.862L310.959 139.572L302.004 144.023ZM38.2819 280.673L308.707 146.275L304.256 137.32L33.8313 271.718L38.2819 280.673Z" fill="black" mask="url(#path-24-inside-1)"/>
</g>
<path id="Ellipse 1_3" d="M300.933 189.628C296.177 180.058 294.685 170.113 296.003 161.826C297.323 153.534 301.396 147.117 307.594 144.036C313.791 140.956 321.366 141.584 328.773 145.54C336.175 149.493 343.201 156.688 347.957 166.258C352.713 175.827 354.205 185.772 352.886 194.059C351.567 202.352 347.493 208.769 341.296 211.849C335.098 214.929 327.523 214.301 320.116 210.345C312.715 206.392 305.689 199.197 300.933 189.628Z" fill="#CEA465" stroke="black" stroke-width="5"/>
<rect id="Rectangle 3" x="299.576" y="219.975" width="134.791" height="3.36355" rx="1.68178" transform="rotate(153.573 299.576 219.975)" fill="black"/>
<rect id="Rectangle 5" x="298.665" y="180.989" width="67.2157" height="3.36355" rx="1.68178" transform="rotate(153.573 298.665 180.989)" fill="black"/>
<rect id="Rectangle 6" x="163.271" y="271.19" width="57.1513" height="3.36355" rx="1.68178" transform="rotate(153.573 163.271 271.19)" fill="black"/>
<rect id="Rectangle 7" x="69.5118" y="287.363" width="35.6537" height="3.36355" rx="1.68178" transform="rotate(153.573 69.5118 287.363)" fill="black"/>
<rect id="Rectangle 8" x="120.152" y="309.147" width="52.1351" height="3.36355" rx="1.68178" transform="rotate(153.573 120.152 309.147)" fill="black"/>
<rect id="Rectangle 4" x="178.349" y="222.38" width="69.0129" height="3.36355" rx="1.68178" transform="rotate(153.573 178.349 222.38)" fill="black"/>
<path id="Ellipse 11" d="M305.132 187.541C303.042 183.335 301.678 178.841 301.147 174.414C300.616 169.986 300.934 165.747 302.074 162.031L303.244 162.863C302.164 166.385 301.863 170.403 302.366 174.598C302.869 178.794 304.162 183.053 306.142 187.039L305.132 187.541Z" fill="#89642C"/>
<path id="Ellipse 12" d="M339.643 204.049C336.853 205.92 333.552 206.823 330.003 206.687C326.453 206.551 322.751 205.379 319.19 203.264L319.465 201.939C322.84 203.943 326.348 205.054 329.712 205.183C333.076 205.312 336.204 204.457 338.848 202.683L339.643 204.049Z" fill="#89642C"/>
<path id="Ellipse 13" d="M340.918 182.588C341.014 185.782 340.452 188.743 339.281 191.212C338.11 193.681 336.364 195.583 334.197 196.752L333.687 195.768C335.741 194.66 337.395 192.857 338.505 190.518C339.615 188.178 340.147 185.372 340.056 182.345L340.918 182.588Z" fill="#89642C"/>
<path id="Ellipse 14" d="M315.869 158.587C318.88 157.404 322.401 157.579 325.913 159.089C329.425 160.598 332.744 163.36 335.383 166.971L334.81 167.545C332.31 164.123 329.165 161.505 325.836 160.075C322.508 158.645 319.171 158.478 316.317 159.6L315.869 158.587Z" fill="#89642C"/>
<path id="Ellipse 15" d="M316.412 192.284C313.333 189.262 310.886 185.335 309.43 181.082C307.975 176.828 307.588 172.471 308.327 168.65L309.17 169.136C308.47 172.757 308.837 176.886 310.216 180.917C311.595 184.949 313.914 188.67 316.832 191.534L316.412 192.284Z" fill="#89642C"/>
<path id="Ellipse 16" d="M310.972 150.834C314.367 149.147 318.327 148.745 322.452 149.671C326.576 150.596 330.721 152.815 334.467 156.105L333.942 157.247C330.392 154.13 326.465 152.027 322.556 151.15C318.647 150.273 314.895 150.653 311.677 152.252L310.972 150.834Z" fill="#89642C"/>
</g>
</g>
</svg>
