<?xml version="1.0" encoding="UTF-8" standalone="no"?>
<!DOCTYPE svg PUBLIC "-//W3C//DTD SVG 1.1//EN" "http://www.w3.org/Graphics/SVG/1.1/DTD/svg11.dtd">
<svg version="1.1" xmlns="http://www.w3.org/2000/svg" xmlns:xlink="http://www.w3.org/1999/xlink" preserveAspectRatio="xMidYMid meet" viewBox="0 0 640 640" width="640" height="640"><defs><path d="M380.52 443.28L379.25 443.32L377.97 443.28L376.72 443.15L375.49 442.94L374.28 442.65L373.1 442.28L371.96 441.83L370.84 441.32L369.76 440.73L368.72 440.08L367.72 439.36L366.76 438.58L365.85 437.74L364.98 436.84L364.16 435.89L363.4 434.89L362.69 433.84L362.03 432.74L361.44 431.6L360.9 430.42L360.43 429.2L360.02 427.94L359.69 426.65L359.42 425.33L359.23 423.98L359.11 422.6L359.07 421.21L359.11 419.81L359.23 418.43L359.42 417.08L359.69 415.76L360.02 414.47L360.43 413.22L360.9 411.99L361.44 410.81L362.03 409.67L362.69 408.57L363.4 407.52L364.16 406.52L364.98 405.57L365.85 404.67L366.76 403.83L367.72 403.05L368.72 402.34L369.76 401.68L370.84 401.1L371.96 400.58L373.1 400.13L374.28 399.76L375.49 399.47L376.72 399.26L377.97 399.13L379.25 399.09L380.52 399.13L381.3 399.21L381.3 399.09L419.61 399.09L419.61 399.21L420.39 399.13L421.67 399.09L422.94 399.13L424.2 399.26L425.43 399.47L426.63 399.76L427.81 400.13L428.96 400.58L430.07 401.1L431.15 401.68L432.19 402.34L433.19 403.05L434.15 403.83L435.07 404.67L435.93 405.57L436.75 406.52L437.52 407.52L438.23 408.57L438.88 409.67L439.48 410.81L440.01 411.99L440.49 413.22L440.89 414.47L441.23 415.76L441.49 417.08L441.69 418.43L441.81 419.81L441.85 421.21L441.81 422.6L441.69 423.98L441.49 425.33L441.23 426.65L440.89 427.94L440.49 429.2L440.01 430.42L439.48 431.6L438.88 432.74L438.23 433.84L437.52 434.89L436.75 435.89L435.93 436.84L435.07 437.74L434.15 438.58L433.19 439.36L432.19 440.08L431.15 440.73L430.07 441.32L428.96 441.83L427.81 442.28L426.63 442.65L425.43 442.94L424.2 443.15L422.94 443.28L421.67 443.32L420.39 443.28L419.61 443.2L419.61 443.32L381.3 443.32L381.3 443.2L380.52 443.28Z" id="c4OYmDWjmK"></path><path d="M263.18 446.28L261.9 446.32L260.62 446.28L259.37 446.15L258.14 445.94L256.93 445.65L255.76 445.28L254.61 444.83L253.5 444.32L252.42 443.73L251.38 443.08L250.38 442.36L249.42 441.58L248.5 440.74L247.64 439.84L246.82 438.89L246.05 437.89L245.34 436.84L244.69 435.74L244.09 434.6L243.55 433.42L243.08 432.2L242.68 430.94L242.34 429.65L242.07 428.33L241.88 426.98L241.76 425.6L241.72 424.21L241.76 422.81L241.88 421.43L242.07 420.08L242.34 418.76L242.68 417.47L243.08 416.22L243.55 414.99L244.09 413.81L244.69 412.67L245.34 411.57L246.05 410.52L246.82 409.52L247.64 408.57L248.5 407.67L249.42 406.83L250.38 406.05L251.38 405.34L252.42 404.68L253.5 404.1L254.61 403.58L255.76 403.13L256.93 402.76L258.14 402.47L259.37 402.26L260.62 402.13L261.9 402.09L263.18 402.13L263.96 402.21L263.96 402.09L302.27 402.09L302.27 402.21L303.05 402.13L304.32 402.09L305.6 402.13L306.85 402.26L308.08 402.47L309.29 402.76L310.46 403.13L311.61 403.58L312.72 404.1L313.8 404.68L314.84 405.34L315.85 406.05L316.8 406.83L317.72 407.67L318.59 408.57L319.4 409.52L320.17 410.52L320.88 411.57L321.54 412.67L322.13 413.81L322.67 414.99L323.14 416.22L323.54 417.47L323.88 418.76L324.15 420.08L324.34 421.43L324.46 422.81L324.5 424.21L324.46 425.6L324.34 426.98L324.15 428.33L323.88 429.65L323.54 430.94L323.14 432.2L322.67 433.42L322.13 434.6L321.54 435.74L320.88 436.84L320.17 437.89L319.4 438.89L318.59 439.84L317.72 440.74L316.8 441.58L315.85 442.36L314.84 443.08L313.8 443.73L312.72 444.32L311.61 444.83L310.46 445.28L309.29 445.65L308.08 445.94L306.85 446.15L305.6 446.28L304.32 446.32L303.05 446.28L302.27 446.2L302.27 446.32L263.96 446.32L263.96 446.2L263.18 446.28Z" id="b3cI1mKY3n"></path><path d="M509.22 263.28L508.81 270L508.13 276.64L507.2 283.2L506.01 289.68L504.57 296.06L502.88 302.35L500.95 308.54L498.79 314.62L496.4 320.59L493.79 326.44L490.96 332.16L487.92 337.77L484.66 343.23L481.21 348.56L477.56 353.75L473.72 358.78L469.69 363.66L465.48 368.39L461.09 372.94L456.54 377.33L451.81 381.54L446.93 385.57L441.9 389.41L436.71 393.06L431.38 396.51L425.92 399.77L420.32 402.81L414.59 405.64L408.74 408.25L402.77 410.64L396.69 412.8L390.5 414.73L384.21 416.42L377.83 417.86L371.35 419.05L364.79 419.98L358.15 420.66L351.43 421.07L344.65 421.21L337.87 421.07L331.15 420.66L324.51 419.98L317.95 419.05L311.47 417.86L305.09 416.42L298.8 414.73L292.61 412.8L286.53 410.64L280.56 408.25L274.71 405.64L268.99 402.81L263.38 399.77L257.92 396.51L252.59 393.06L247.4 389.41L242.37 385.57L237.49 381.54L232.76 377.33L228.21 372.94L223.82 368.39L219.61 363.66L215.58 358.78L211.74 353.75L208.09 348.56L204.64 343.23L201.38 337.77L198.34 332.16L195.51 326.44L192.9 320.59L190.51 314.62L188.35 308.54L186.42 302.35L184.73 296.06L183.29 289.68L182.1 283.2L181.17 276.64L180.49 270L180.08 263.28L179.94 256.5L179.94 91.79L509.36 91.79L509.36 256.5L509.22 263.28ZM467.09 48.49L469.11 48.65L471.09 48.87L473.02 49.14L474.9 49.47L476.73 49.86L478.52 50.3L480.25 50.8L481.93 51.35L483.57 51.96L485.15 52.63L486.69 53.35L488.17 54.13L489.61 54.97L491 55.86L492.34 56.8L493.63 57.81L494.87 58.87L496.06 59.98L497.2 61.15L498.3 62.38L499.34 63.66L500.34 65L501.28 66.39L502.18 67.84L503.03 69.35L503.82 70.91L504.57 72.53L505.27 74.2L505.92 75.93L506.52 77.72L507.08 79.56L507.58 81.46L508.03 83.42L508.44 85.43L508.79 87.49L509.1 89.62L509.36 91.79L344.65 91.79L350.53 91.72L356.09 91.5L361.34 91.13L366.3 90.63L370.98 89.99L375.38 89.23L379.54 88.36L383.45 87.39L387.13 86.31L390.6 85.15L393.87 83.91L396.95 82.59L399.86 81.21L402.6 79.76L405.19 78.27L407.65 76.74L409.99 75.18L412.22 73.59L414.35 71.98L416.41 70.36L418.39 68.74L420.32 67.13L422.21 65.53L424.06 63.96L425.9 62.41L427.74 60.9L429.6 59.44L431.47 58.04L433.38 56.7L435.35 55.42L437.37 54.23L439.48 53.12L441.68 52.11L443.98 51.2L446.39 50.4L448.94 49.72L451.63 49.16L454.48 48.74L457.5 48.46L460.71 48.33L462.88 48.33L465.01 48.38L467.09 48.49ZM231.8 48.46L234.82 48.74L237.67 49.16L240.36 49.72L242.91 50.4L245.32 51.2L247.62 52.11L249.82 53.12L251.93 54.23L253.95 55.42L255.92 56.7L257.83 58.04L259.71 59.44L261.56 60.9L263.4 62.41L265.24 63.96L267.09 65.53L268.98 67.13L270.91 68.74L272.89 70.36L274.95 71.98L277.08 73.59L279.31 75.18L281.65 76.74L284.11 78.27L286.7 79.76L289.44 81.21L292.35 82.59L295.43 83.91L298.7 85.15L302.17 86.31L305.85 87.39L309.76 88.36L313.92 89.23L318.32 89.99L323 90.63L327.96 91.13L333.21 91.5L338.77 91.72L344.65 91.79L179.94 91.79L180.2 89.62L180.51 87.49L180.86 85.43L181.27 83.42L181.72 81.46L182.22 79.56L182.78 77.72L183.38 75.93L184.03 74.2L184.73 72.53L185.48 70.91L186.27 69.35L187.12 67.84L188.02 66.39L188.96 65L189.96 63.66L191 62.38L192.1 61.15L193.24 59.98L194.43 58.87L195.67 57.81L196.96 56.8L198.3 55.86L199.69 54.97L201.13 54.13L202.61 53.35L204.15 52.63L205.73 51.96L207.37 51.35L209.05 50.8L210.78 50.3L212.57 49.86L214.4 49.47L216.28 49.14L218.21 48.87L220.19 48.65L222.21 48.49L224.29 48.38L226.42 48.33L228.59 48.33L231.8 48.46Z" id="cefYQraRC"></path><path d="" id="aPNzgDJA"></path><path d="" id="a1zAM1Pbhd"></path><path d="M413.4 93.18L413.8 93.29L414.19 93.46L414.58 93.68L414.96 93.95L415.34 94.27L415.71 94.65L416.07 95.08L416.43 95.56L416.79 96.1L417.14 96.69L417.48 97.33L417.82 98.02L418.16 98.77L418.48 99.57L418.8 100.39L419.1 101.22L419.38 102.04L419.63 102.86L419.87 103.68L420.09 104.5L420.29 105.32L420.47 106.13L420.63 106.95L420.77 107.76L420.89 108.57L420.99 109.39L421.07 110.19L421.13 111L421.18 111.81L421.2 112.61L421.2 113.42L421.19 114.22L421.15 115.02L421.09 115.82L421.02 116.62L420.92 117.42L420.81 118.21L420.68 119.01L420.52 119.8L420.35 120.59L420.16 121.38L420.04 121.83L421.95 121.76L424.3 121.73L425.98 121.75L429.89 116.21L433.71 111.73L437.13 108.75L440.16 107.25L442.79 107.25L445.03 108.75L446.87 111.73L448.32 116.21L449.37 122.19L449.65 125.38L450.59 125.66L452.54 126.31L454.44 127.01L456.29 127.75L458.09 128.53L459.84 129.35L461.53 130.21L463.17 131.11L464.76 132.05L466.28 133.02L467.74 134.03L469.14 135.07L470.48 136.15L471.75 137.26L472.95 138.4L474.08 139.57L475.13 140.76L476.12 141.99L477.03 143.24L477.86 144.51L478.61 145.81L479.27 147.14L479.86 148.48L480.36 149.84L480.78 151.23L481.1 152.63L481.34 154.05L481.48 155.49L481.53 156.94L481.53 247.3L481.48 248.75L481.34 250.18L481.1 251.6L480.78 253L480.36 254.39L479.86 255.75L479.27 257.1L478.61 258.42L477.86 259.72L477.03 260.99L476.12 262.24L475.13 263.47L474.08 264.67L472.95 265.83L471.75 266.97L470.48 268.08L469.14 269.16L467.74 270.2L466.28 271.21L464.76 272.18L463.17 273.12L461.53 274.02L459.84 274.88L458.09 275.7L456.29 276.48L454.44 277.22L452.54 277.92L450.59 278.57L448.6 279.17L446.57 279.73L444.49 280.24L442.38 280.7L440.23 281.12L438.05 281.48L435.83 281.78L433.58 282.04L431.3 282.24L428.99 282.38L426.66 282.47L424.3 282.5L421.95 282.47L419.61 282.38L417.31 282.24L415.03 282.04L412.78 281.78L410.56 281.48L408.37 281.12L406.22 280.7L404.11 280.24L402.04 279.73L400 279.17L398.83 278.82L398.78 278.81L393.3 277.25L388.18 275.45L383.41 273.4L379.01 271.1L374.97 268.54L371.28 265.74L367.96 262.68L364.99 259.37L362.38 255.81L360.14 252L358.8 249.12L330.51 249.12L329.16 252L326.92 255.81L324.31 259.37L321.34 262.68L318.02 265.74L314.33 268.54L310.29 271.1L305.89 273.4L301.12 275.45L296 277.25L290.52 278.81L290.47 278.82L289.3 279.17L287.26 279.73L285.19 280.24L283.08 280.7L280.93 281.12L278.74 281.48L276.52 281.78L274.27 282.04L272 282.24L269.69 282.38L267.35 282.47L265 282.5L262.64 282.47L260.31 282.38L258 282.24L255.72 282.04L253.47 281.78L251.25 281.48L249.07 281.12L246.92 280.7L244.81 280.24L242.73 279.73L240.7 279.17L238.71 278.57L236.76 277.92L234.86 277.22L233.01 276.48L231.21 275.7L229.46 274.88L227.77 274.02L226.13 273.12L224.54 272.18L223.02 271.21L221.56 270.2L220.16 269.16L218.82 268.08L217.55 266.97L216.35 265.83L215.22 264.67L214.17 263.47L213.18 262.24L212.27 260.99L211.44 259.72L210.69 258.42L210.03 257.1L209.44 255.75L208.94 254.39L208.52 253L208.2 251.6L207.96 250.18L207.82 248.75L207.78 247.3L207.78 156.94L207.82 155.49L207.96 154.05L208.2 152.63L208.52 151.23L208.94 149.84L209.44 148.48L210.03 147.14L210.69 145.81L211.44 144.51L212.27 143.24L213.18 141.99L214.17 140.76L215.22 139.57L216.35 138.4L217.55 137.26L218.82 136.15L220.16 135.07L221.56 134.03L223.02 133.02L224.54 132.05L226.13 131.11L227.77 130.21L229.46 129.35L231.21 128.53L233.01 127.75L234.86 127.01L236.76 126.31L238.71 125.66L239.66 125.38L239.93 122.19L240.98 116.21L242.43 111.73L244.27 108.75L246.51 107.25L249.14 107.25L252.17 108.75L255.59 111.73L259.41 116.21L263.33 121.75L265 121.73L267.35 121.76L269.26 121.83L269.14 121.38L268.95 120.59L268.78 119.8L268.62 119.01L268.49 118.21L268.38 117.42L268.28 116.62L268.21 115.82L268.15 115.02L268.11 114.22L268.1 113.42L268.1 112.61L268.12 111.81L268.17 111L268.23 110.19L268.31 109.39L268.41 108.57L268.53 107.76L268.67 106.95L268.83 106.13L269.01 105.32L269.21 104.5L269.43 103.68L269.67 102.86L269.92 102.04L270.2 101.22L270.5 100.39L270.82 99.57L271.14 98.77L271.48 98.02L271.82 97.33L272.16 96.69L272.51 96.1L272.87 95.56L273.23 95.08L273.59 94.65L273.97 94.27L274.34 93.95L274.72 93.68L275.11 93.46L275.5 93.29L275.9 93.18L276.3 93.12L276.71 93.11L277.13 93.16L277.54 93.25L277.97 93.41L278.4 93.61L278.83 93.87L279.27 94.18L279.72 94.54L280.17 94.95L280.62 95.42L281.09 95.94L281.55 96.52L282.02 97.14L282.5 97.82L282.98 98.55L283.47 99.34L283.97 100.18L284.46 101.07L284.97 102.01L285.48 103.01L285.99 104.05L286.51 105.16L287.03 106.31L287.57 107.52L288.1 108.78L289.4 110.74L290.71 112.66L292.02 114.53L293.34 116.34L294.66 118.11L295.99 119.83L297.33 121.5L298.68 123.11L300.03 124.68L301.39 126.2L302.76 127.67L304.13 129.09L305.51 130.45L306.89 131.77L308.29 133.04L309.68 134.26L311.09 135.43L312.5 136.55L313.92 137.62L315.35 138.64L316.78 139.61L318.22 140.53L319.66 141.41L321.11 142.23L322.57 143L324.04 143.72L325.51 144.39L326.99 145.01L328.47 145.59L329.97 146.11L331.46 146.58L332.97 147L334.48 147.38L336 147.7L337.52 147.98L339.06 148.2L340.6 148.37L342.14 148.5L343.69 148.57L344.65 148.59L345.61 148.57L347.16 148.5L348.71 148.37L350.24 148.2L351.78 147.98L353.3 147.7L354.82 147.38L356.33 147L357.84 146.58L359.33 146.11L360.83 145.59L362.31 145.01L363.79 144.39L365.26 143.72L366.73 143L368.19 142.23L369.64 141.41L371.08 140.53L372.52 139.61L373.95 138.64L375.38 137.62L376.8 136.55L378.21 135.43L379.62 134.26L381.01 133.04L382.41 131.77L383.79 130.45L385.17 129.09L386.54 127.67L387.91 126.2L389.27 124.68L390.62 123.11L391.97 121.5L393.31 119.83L394.64 118.11L395.96 116.34L397.28 114.53L398.59 112.66L399.9 110.74L401.2 108.78L401.74 107.52L402.27 106.31L402.79 105.16L403.31 104.05L403.82 103.01L404.33 102.01L404.84 101.07L405.34 100.18L405.83 99.34L406.32 98.55L406.8 97.82L407.28 97.14L407.75 96.52L408.21 95.94L408.68 95.42L409.13 94.95L409.58 94.54L410.03 94.18L410.47 93.87L410.9 93.61L411.33 93.41L411.76 93.25L412.17 93.16L412.59 93.11L413 93.12L413.4 93.18ZM328.77 249.14L328.81 249.12L328.78 249.12L328.77 249.14Z" id="a2NFEHlBEc"></path><path d="" id="e1LrsilTk"></path><path d="" id="ekbHVAcaR"></path><path d="" id="g1RF5IGiiB"></path><path d="M379.89 268.92C379.89 286.56 364.1 300.88 344.65 300.88C325.2 300.88 309.41 286.56 309.41 268.92C309.41 251.28 325.2 236.96 344.65 236.96C364.1 236.96 379.89 251.28 379.89 268.92Z" id="ipoS4ouID"></path><path d="M384.93 263.95L384.72 264.48L384.42 265L384.04 265.52L383.58 266.03L383.04 266.53L382.43 267.02L381.75 267.49L380.99 267.96L380.17 268.42L379.28 268.86L378.32 269.29L377.3 269.71L376.22 270.12L375.07 270.51L373.87 270.88L372.62 271.24L371.31 271.58L369.95 271.91L368.54 272.22L367.08 272.52L365.57 272.79L364.03 273.05L362.44 273.28L360.81 273.5L359.14 273.69L357.43 273.87L355.69 274.02L353.92 274.16L352.12 274.26L350.29 274.35L348.43 274.41L346.55 274.45L344.65 274.46L342.75 274.45L340.87 274.41L339.01 274.35L337.18 274.26L335.38 274.16L333.61 274.02L331.87 273.87L330.16 273.69L328.49 273.5L326.86 273.28L325.27 273.05L323.73 272.79L322.22 272.52L320.76 272.22L319.35 271.91L317.99 271.58L316.68 271.24L315.43 270.88L314.23 270.51L313.08 270.12L312 269.71L310.98 269.29L310.02 268.86L309.13 268.42L308.31 267.96L307.55 267.49L306.87 267.02L306.26 266.53L305.72 266.03L305.26 265.52L304.88 265L304.58 264.48L304.37 263.95L304.24 263.41L304.19 262.86L385.11 262.86L385.06 263.41L384.93 263.95ZM348.02 232.43L349.68 232.58L351.32 232.79L352.94 233.06L354.53 233.39L356.1 233.77L357.65 234.21L359.17 234.7L360.66 235.24L362.12 235.83L363.55 236.47L364.95 237.16L366.31 237.9L367.65 238.68L368.94 239.51L370.2 240.38L371.42 241.29L372.6 242.24L373.73 243.24L374.83 244.27L375.88 245.34L376.89 246.45L377.85 247.59L378.76 248.76L379.62 249.97L380.44 251.21L381.2 252.48L381.9 253.77L382.56 255.1L383.15 256.45L383.69 257.83L384.17 259.23L384.59 260.66L384.95 262.1L385.11 262.86L304.19 262.86L304.35 262.1L304.71 260.66L305.13 259.23L305.61 257.83L306.15 256.45L306.74 255.1L307.4 253.77L308.1 252.48L308.86 251.21L309.68 249.97L310.54 248.76L311.45 247.59L312.41 246.45L313.42 245.34L314.47 244.27L315.57 243.24L316.7 242.24L317.88 241.29L319.1 240.38L320.36 239.51L321.65 238.68L322.99 237.9L324.35 237.16L325.75 236.47L327.18 235.83L328.64 235.24L330.13 234.7L331.65 234.21L333.2 233.77L334.77 233.39L336.36 233.06L337.98 232.79L339.62 232.58L341.28 232.43L342.96 232.33L344.65 232.3L346.34 232.33L348.02 232.43Z" id="b11IbJ1pEj"></path><path d="" id="c3uUi28AmY"></path><path d="M298.81 229.31L298.57 230.37L298.28 231.42L297.92 232.46L297.5 233.47L297.02 234.47L296.48 235.45L295.89 236.41L295.24 237.35L294.54 238.26L293.79 239.15L292.99 240.02L292.13 240.86L291.23 241.67L290.29 242.46L289.3 243.22L288.26 243.95L287.19 244.64L286.07 245.31L284.91 245.95L283.72 246.55L282.49 247.11L281.23 247.64L279.93 248.14L278.6 248.59L277.24 249.01L275.85 249.39L274.44 249.73L272.99 250.02L271.53 250.27L270.04 250.48L268.53 250.65L266.99 250.77L265.44 250.84L263.87 250.86L262.31 250.84L260.75 250.77L259.22 250.65L257.71 250.48L256.22 250.27L254.75 250.02L253.31 249.73L251.9 249.39L250.51 249.01L249.15 248.59L247.82 248.14L246.52 247.64L245.26 247.11L244.03 246.55L242.83 245.95L241.68 245.31L240.56 244.64L239.49 243.95L238.45 243.22L237.46 242.46L236.51 241.67L235.61 240.86L234.76 240.02L233.96 239.15L233.21 238.26L232.51 237.35L231.86 236.41L231.27 235.45L230.73 234.47L230.25 233.47L229.83 232.46L229.47 231.42L229.18 230.37L228.94 229.31L228.77 228.23L228.67 227.14L228.64 226.03L228.64 162.29L228.67 161.19L228.77 160.1L228.94 159.02L229.18 157.95L229.47 156.9L229.83 155.87L230.25 154.85L230.73 153.85L231.27 152.87L231.86 151.92L232.51 150.98L233.21 150.06L233.96 149.17L234.76 148.31L235.61 147.47L236.51 146.65L237.46 145.86L238.45 145.11L239.49 144.38L240.56 143.68L241.68 143.01L242.83 142.38L244.03 141.78L245.26 141.21L246.52 140.68L247.82 140.19L249.15 139.73L250.51 139.31L251.9 138.94L253.31 138.6L254.75 138.3L256.22 138.05L257.71 137.84L259.22 137.68L260.75 137.56L262.31 137.49L263.87 137.46L265.44 137.49L266.99 137.56L268.53 137.68L270.04 137.84L271.53 138.05L272.99 138.3L274.44 138.6L275.85 138.94L277.24 139.31L278.6 139.73L279.93 140.19L281.23 140.68L282.49 141.21L283.72 141.78L284.91 142.38L286.07 143.01L287.19 143.68L288.26 144.38L289.3 145.11L290.29 145.86L291.23 146.65L292.13 147.47L292.99 148.31L293.79 149.17L294.54 150.06L295.24 150.98L295.89 151.92L296.48 152.87L297.02 153.85L297.5 154.85L297.92 155.87L298.28 156.9L298.57 157.95L298.81 159.02L298.97 160.1L299.08 161.19L299.11 162.29L299.11 226.03L299.08 227.14L298.97 228.23L298.81 229.31Z" id="c9aPjhNE3V"></path><path d="M461.28 229.31L461.04 230.37L460.75 231.42L460.39 232.46L459.97 233.47L459.49 234.47L458.95 235.45L458.36 236.41L457.71 237.35L457.01 238.26L456.26 239.15L455.46 240.02L454.61 240.86L453.71 241.67L452.76 242.46L451.77 243.22L450.73 243.95L449.66 244.64L448.54 245.31L447.39 245.95L446.19 246.55L444.96 247.11L443.7 247.64L442.4 248.14L441.07 248.59L439.71 249.01L438.32 249.39L436.91 249.73L435.47 250.02L434 250.27L432.51 250.48L431 250.65L429.46 250.77L427.91 250.84L426.35 250.86L424.78 250.84L423.23 250.77L421.69 250.65L420.18 250.48L418.69 250.27L417.22 250.02L415.78 249.73L414.37 249.39L412.98 249.01L411.62 248.59L410.29 248.14L408.99 247.64L407.73 247.11L406.5 246.55L405.3 245.95L404.15 245.31L403.03 244.64L401.96 243.95L400.92 243.22L399.93 242.46L398.99 241.67L398.09 240.86L397.23 240.02L396.43 239.15L395.68 238.26L394.98 237.35L394.33 236.41L393.74 235.45L393.2 234.47L392.72 233.47L392.3 232.46L391.94 231.42L391.65 230.37L391.41 229.31L391.25 228.23L391.14 227.14L391.11 226.03L391.11 162.29L391.14 161.19L391.25 160.1L391.41 159.02L391.65 157.95L391.94 156.9L392.3 155.87L392.72 154.85L393.2 153.85L393.74 152.87L394.33 151.92L394.98 150.98L395.68 150.06L396.43 149.17L397.23 148.31L398.09 147.47L398.99 146.65L399.93 145.86L400.92 145.11L401.96 144.38L403.03 143.68L404.15 143.01L405.3 142.38L406.5 141.78L407.73 141.21L408.99 140.68L410.29 140.19L411.62 139.73L412.98 139.31L414.37 138.94L415.78 138.6L417.22 138.3L418.69 138.05L420.18 137.84L421.69 137.68L423.23 137.56L424.78 137.49L426.35 137.46L427.91 137.49L429.46 137.56L431 137.68L432.51 137.84L434 138.05L435.47 138.3L436.91 138.6L438.32 138.94L439.71 139.31L441.07 139.73L442.4 140.19L443.7 140.68L444.96 141.21L446.19 141.78L447.39 142.38L448.54 143.01L449.66 143.68L450.73 144.38L451.77 145.11L452.76 145.86L453.71 146.65L454.61 147.47L455.46 148.31L456.26 149.17L457.01 150.06L457.71 150.98L458.36 151.92L458.95 152.87L459.49 153.85L459.97 154.85L460.39 155.87L460.75 156.9L461.04 157.95L461.28 159.02L461.45 160.1L461.55 161.19L461.58 162.29L461.58 226.03L461.55 227.14L461.45 228.23L461.28 229.31Z" id="h2GzzVXTsK"></path><path d="M252.36 173.68L252.66 172.48L253.08 171.32L253.6 170.2L254.23 169.14L254.95 168.13L255.76 167.18L256.65 166.3L257.63 165.49L258.67 164.76L259.79 164.11L260.97 163.55L262.2 163.08L263.49 162.7L264.83 162.43L266.2 162.26L267.61 162.2L269.02 162.26L270.4 162.43L271.73 162.7L273.02 163.08L274.25 163.55L275.43 164.11L276.55 164.76L277.59 165.49L278.57 166.3L279.46 167.18L280.27 168.13L280.99 169.14L281.62 170.2L282.14 171.32L282.56 172.48L282.86 173.68L283.05 174.92L283.11 176.2L283.11 212.13L283.05 213.4L282.86 214.64L282.56 215.85L282.14 217.01L281.62 218.12L280.99 219.19L280.27 220.2L279.46 221.14L278.57 222.02L277.59 222.83L276.55 223.56L275.43 224.21L274.25 224.78L273.02 225.25L271.73 225.62L270.4 225.9L269.02 226.07L267.61 226.12L266.2 226.07L264.83 225.9L263.49 225.62L262.2 225.25L260.97 224.78L259.79 224.21L258.67 223.56L257.63 222.83L256.65 222.02L255.76 221.14L254.95 220.2L254.23 219.19L253.6 218.12L253.08 217.01L252.66 215.85L252.36 214.64L252.17 213.4L252.11 212.13L252.11 176.2L252.17 174.92L252.36 173.68Z" id="b1FI4OLyN"></path><path d="M411.1 173.68L411.4 172.48L411.82 171.32L412.34 170.2L412.96 169.14L413.68 168.13L414.49 167.18L415.39 166.3L416.36 165.49L417.41 164.76L418.52 164.11L419.7 163.55L420.94 163.08L422.23 162.7L423.56 162.43L424.94 162.26L426.35 162.2L427.76 162.26L429.13 162.43L430.46 162.7L431.75 163.08L432.99 163.55L434.17 164.11L435.28 164.76L436.33 165.49L437.3 166.3L438.2 167.18L439.01 168.13L439.73 169.14L440.35 170.2L440.87 171.32L441.29 172.48L441.6 173.68L441.78 174.92L441.85 176.2L441.85 212.13L441.78 213.4L441.6 214.64L441.29 215.85L440.87 217.01L440.35 218.12L439.73 219.19L439.01 220.2L438.2 221.14L437.3 222.02L436.33 222.83L435.28 223.56L434.17 224.21L432.99 224.78L431.75 225.25L430.46 225.62L429.13 225.9L427.76 226.07L426.35 226.12L424.94 226.07L423.56 225.9L422.23 225.62L420.94 225.25L419.7 224.78L418.52 224.21L417.41 223.56L416.36 222.83L415.39 222.02L414.49 221.14L413.68 220.2L412.96 219.19L412.34 218.12L411.82 217.01L411.4 215.85L411.1 214.64L410.91 213.4L410.85 212.13L410.85 176.2L410.91 174.92L411.1 173.68Z" id="bbtd7FngE"></path><path d="M270.61 174.31C270.61 181.76 264.56 187.81 257.11 187.81C249.66 187.81 243.61 181.76 243.61 174.31C243.61 166.85 249.66 160.81 257.11 160.81C264.56 160.81 270.61 166.85 270.61 174.31Z" id="deyZtPTCH"></path><path d="M429.61 175.7C429.61 183.15 423.56 189.2 416.11 189.2C408.66 189.2 402.61 183.15 402.61 175.7C402.61 168.25 408.66 162.2 416.11 162.2C423.56 162.2 429.61 168.25 429.61 175.7Z" id="e4l8FBddiq"></path><path d="M326.52 335.69L326.24 336.79L325.89 337.88L325.46 338.94L324.97 339.98L324.41 341L323.78 341.98L323.09 342.94L322.33 343.86L321.52 344.76L320.65 345.61L319.72 346.44L318.74 347.22L317.71 347.97L316.63 348.68L315.51 349.34L314.34 349.96L313.12 350.54L311.87 351.06L310.58 351.54L309.25 351.97L307.88 352.35L306.49 352.67L305.07 352.94L303.61 353.15L302.13 353.3L300.63 353.4L299.11 353.43L297.59 353.4L296.09 353.3L294.61 353.15L293.16 352.94L291.73 352.67L290.34 352.35L288.97 351.97L287.65 351.54L286.35 351.06L285.1 350.54L283.89 349.96L282.71 349.34L281.59 348.68L280.51 347.97L279.48 347.22L278.5 346.44L277.57 345.61L276.7 344.76L275.89 343.86L275.13 342.94L274.44 341.98L273.81 341L273.25 339.98L272.76 338.94L272.33 337.88L271.98 336.79L271.7 335.69L271.5 334.56L271.38 333.41L271.34 332.25L326.88 332.25L326.84 333.41L326.72 334.56L326.72 334.56L326.52 335.69Z" id="a18BswY3C1"></path><path d="M415.75 335.69L415.47 336.79L415.12 337.88L414.69 338.94L414.2 339.98L413.64 341L413.01 341.98L412.32 342.94L411.56 343.86L410.75 344.76L409.88 345.61L408.95 346.44L407.97 347.22L406.94 347.97L405.86 348.68L404.74 349.34L403.57 349.96L402.35 350.54L401.1 351.06L399.81 351.54L398.48 351.97L397.11 352.35L395.72 352.67L394.3 352.94L392.84 353.15L391.37 353.3L389.86 353.4L388.34 353.43L386.82 353.4L385.32 353.3L383.84 353.15L382.39 352.94L380.96 352.67L379.57 352.35L378.21 351.97L376.88 351.54L375.58 351.06L374.33 350.54L373.12 349.96L371.95 349.34L370.82 348.68L369.74 347.97L368.71 347.22L367.73 346.44L366.8 345.61L365.93 344.76L365.12 343.86L364.37 342.94L363.67 341.98L363.04 341L362.48 339.98L361.99 338.94L361.56 337.88L361.21 336.79L360.94 335.69L360.73 334.56L360.61 333.41L360.57 332.25L416.11 332.25L416.07 333.41L415.95 334.56L415.95 334.56L415.75 335.69Z" id="bXfrTjFGp"></path><path d="M372.06 368.69L371.78 369.79L371.43 370.88L371 371.94L370.51 372.98L369.95 374L369.32 374.98L368.63 375.94L367.87 376.86L367.06 377.76L366.19 378.61L365.26 379.44L364.28 380.22L363.25 380.97L362.17 381.68L361.05 382.34L359.87 382.96L358.66 383.54L357.41 384.06L356.11 384.54L354.79 384.97L353.42 385.35L352.03 385.67L350.6 385.94L349.15 386.15L347.67 386.3L346.17 386.4L344.65 386.43L343.13 386.4L341.63 386.3L340.15 386.15L338.7 385.94L337.27 385.67L335.88 385.35L334.51 384.97L333.19 384.54L331.89 384.06L330.64 383.54L329.43 382.96L328.25 382.34L327.13 381.68L326.05 380.97L325.02 380.22L324.04 379.44L323.11 378.61L322.24 377.76L321.43 376.86L320.67 375.94L319.98 374.98L319.35 374L318.79 372.98L318.3 371.94L317.87 370.88L317.52 369.79L317.24 368.69L317.04 367.56L316.92 366.41L316.88 365.25L372.42 365.25L372.38 366.41L372.26 367.56L372.26 367.56L372.06 368.69Z" id="aGR8CQeZp"></path><path d="M220.92 358.35L219.47 359.65L217.98 360.92L216.43 362.15L214.83 363.35L213.18 364.52L211.48 365.64L209.73 366.74L207.93 367.8L206.07 368.82L204.17 369.81L202.21 370.77L200.21 371.69L198.15 372.57L196.04 373.43L193.88 374.24L191.67 375.02L189.4 375.77L187.09 376.48L184.72 377.16L182.31 377.8L179.84 378.41L177.32 378.98L174.75 379.52L172.13 380.02L169.45 380.49L166.73 380.93L163.95 381.33L161.13 381.69L158.25 382.02L155.32 382.32L152.34 382.58L149.31 382.8L146.23 382.99L143.1 383.15L139.91 383.27L136.68 383.36L133.39 383.41L130.05 383.43L130.02 383.38L129.92 383.39L128.59 383.43L127.25 383.39L125.94 383.27L124.65 383.07L123.38 382.81L122.14 382.47L120.94 382.06L119.76 381.58L118.62 381.04L117.52 380.43L116.46 379.77L115.43 379.04L114.46 378.27L113.53 377.44L112.64 376.55L111.81 375.62L111.03 374.64L110.31 373.62L109.65 372.56L109.04 371.46L108.5 370.32L108.02 369.14L107.61 367.94L107.27 366.7L107 365.43L106.81 364.14L106.69 362.83L106.65 361.49L106.69 360.16L106.81 358.84L107 357.55L107.27 356.28L107.61 355.05L108.02 353.84L108.5 352.66L109.04 351.53L109.65 350.42L110.31 349.36L111.03 348.34L111.81 347.36L111.85 347.32L187.09 214.74L223.65 355.64L222.31 357.01L222.31 357.01L220.92 358.35Z" id="cA0zSglEK"></path><path d="M576.61 351.34L577.34 352.36L578 353.42L578.61 354.53L579.15 355.66L579.62 356.84L580.03 358.05L580.37 359.28L580.64 360.55L580.84 361.84L580.96 363.16L581 364.49L580.96 365.83L580.84 367.14L580.64 368.43L580.37 369.7L580.03 370.94L579.62 372.14L579.15 373.32L578.61 374.46L578 375.56L577.34 376.62L576.61 377.64L575.84 378.62L575 379.55L574.12 380.44L573.19 381.27L572.21 382.04L571.19 382.77L570.13 383.43L569.03 384.04L567.89 384.58L566.71 385.06L565.5 385.47L564.27 385.81L563 386.07L561.71 386.27L560.4 386.39L559.06 386.43L557.72 386.39L557.63 386.38L557.6 386.43L554.26 386.41L550.97 386.36L547.74 386.27L544.55 386.15L541.42 385.99L538.34 385.8L535.31 385.58L532.33 385.32L529.4 385.02L526.52 384.69L523.69 384.33L520.92 383.93L518.19 383.49L515.52 383.02L512.9 382.52L510.33 381.98L507.81 381.41L505.34 380.8L502.93 380.16L500.56 379.48L498.25 378.77L495.98 378.02L493.77 377.24L491.61 376.43L489.5 375.57L487.44 374.69L485.43 373.77L483.48 372.81L481.57 371.82L479.72 370.8L477.92 369.74L476.17 368.64L474.47 367.52L472.82 366.35L471.22 365.15L469.67 363.92L468.18 362.65L466.73 361.35L465.34 360.01L464 358.64L500.56 217.74L575.8 350.32L575.84 350.36L575.84 350.36L576.61 351.34Z" id="b9nXzXOXL"></path></defs><g><g><g><use xlink:href="#c4OYmDWjmK" opacity="1" fill="#c87f07" fill-opacity="1"></use></g><g><use xlink:href="#b3cI1mKY3n" opacity="1" fill="#c87f07" fill-opacity="1"></use></g><g><use xlink:href="#cefYQraRC" opacity="1" fill="#32a529" fill-opacity="1"></use></g><g><g><use xlink:href="#aPNzgDJA" opacity="1" fill-opacity="0" stroke="#000000" stroke-width="1" stroke-opacity="1"></use></g></g><g><g><use xlink:href="#a1zAM1Pbhd" opacity="1" fill-opacity="0" stroke="#000000" stroke-width="1" stroke-opacity="1"></use></g></g><g><use xlink:href="#a2NFEHlBEc" opacity="1" fill="#4ec534" fill-opacity="1"></use></g><g><g><use xlink:href="#e1LrsilTk" opacity="1" fill-opacity="0" stroke="#000000" stroke-width="1" stroke-opacity="1"></use></g></g><g><g><use xlink:href="#ekbHVAcaR" opacity="1" fill-opacity="0" stroke="#000000" stroke-width="1" stroke-opacity="1"></use></g></g><g><g><use xlink:href="#g1RF5IGiiB" opacity="1" fill-opacity="0" stroke="#000000" stroke-width="1" stroke-opacity="1"></use></g></g><g><use xlink:href="#ipoS4ouID" opacity="1" fill="#c87f07" fill-opacity="1"></use></g><g><use xlink:href="#b11IbJ1pEj" opacity="1" fill="#efc314" fill-opacity="1"></use></g><g><g><use xlink:href="#c3uUi28AmY" opacity="1" fill-opacity="0" stroke="#000000" stroke-width="1" stroke-opacity="1"></use></g></g><g><use xlink:href="#c9aPjhNE3V" opacity="1" fill="#ffffff" fill-opacity="1"></use></g><g><use xlink:href="#h2GzzVXTsK" opacity="1" fill="#ffffff" fill-opacity="1"></use></g><g><use xlink:href="#b1FI4OLyN" opacity="1" fill="#212121" fill-opacity="1"></use></g><g><use xlink:href="#bbtd7FngE" opacity="1" fill="#212121" fill-opacity="1"></use></g><g><use xlink:href="#deyZtPTCH" opacity="1" fill="#ffffff" fill-opacity="1"></use></g><g><use xlink:href="#e4l8FBddiq" opacity="1" fill="#ffffff" fill-opacity="1"></use></g><g><use xlink:href="#a18BswY3C1" opacity="1" fill="#4ec534" fill-opacity="1"></use></g><g><use xlink:href="#bXfrTjFGp" opacity="1" fill="#4ec534" fill-opacity="1"></use></g><g><use xlink:href="#aGR8CQeZp" opacity="1" fill="#4ec534" fill-opacity="1"></use></g><g><use xlink:href="#cA0zSglEK" opacity="1" fill="#32a529" fill-opacity="1"></use></g><g><use xlink:href="#b9nXzXOXL" opacity="1" fill="#32a529" fill-opacity="1"></use></g></g></g></svg>