<svg width="2790" height="357" viewBox="0 0 2790 357" fill="none" xmlns="http://www.w3.org/2000/svg">
<g id="BlueKarmaLogo">
<path id="Rectangle 51" d="M1655 125H1633L1732.99 356.143H1754.99L1655 125Z" fill="#7DE8FF"/>
<g id="Rectangle 49">
<path d="M1676.99 125H1698.99L1599 356.143H1577L1676.99 125Z" fill="#31CDFE"/>
<path d="M1676.99 125H1698.99L1599 356.143H1577L1676.99 125Z" fill="#31CDFE"/>
</g>
<path id="Rectangle 50" d="M1698.99 125H1720.99L1621 356.143H1599L1698.99 125Z" fill="#7DE8FF"/>
<path id="Rectangle 46" d="M1667 51H1645L1777 356.143H1799L1667 51Z" fill="#1283EB"/>
<g id="Rectangle 48">
<path d="M1677.01 125H1655.01L1755 356.143H1777L1677.01 125Z" fill="#31CDFE"/>
<path d="M1677.01 125H1655.01L1755 356.143H1777L1677.01 125Z" fill="#31CDFE"/>
</g>
<path id="Rectangle 47" d="M1687 51H1709L1577 356.143H1555L1687 51Z" fill="#1283EB"/>
<path id="Rectangle 11" d="M1666 0H1688L1534 356H1512L1666 0Z" fill="#1433A4"/>
<path id="Rectangle 45" d="M1688 50.8571H1666L1798 356H1820L1688 50.8571Z" fill="#355DEB"/>
<path id="Rectangle 44" d="M1677.19 25H1699.19L1556 356H1534L1677.19 25Z" fill="#355DEB"/>
<path id="Rectangle 43" d="M1688 0H1666L1820 356H1842L1688 0Z" fill="#1433A4"/>
<path id="Rectangle 87" d="M2603 125H2581L2680.99 356.143H2702.99L2603 125Z" fill="#7DE8FF"/>
<g id="Rectangle 88">
<path d="M2624.99 125H2646.99L2547 356.143H2525L2624.99 125Z" fill="#31CDFE"/>
<path d="M2624.99 125H2646.99L2547 356.143H2525L2624.99 125Z" fill="#31CDFE"/>
</g>
<path id="Rectangle 89" d="M2646.99 125H2668.99L2569 356.143H2547L2646.99 125Z" fill="#7DE8FF"/>
<path id="Rectangle 90" d="M2615 51H2593L2725 356.143H2747L2615 51Z" fill="#1283EB"/>
<g id="Rectangle 91">
<path d="M2625.01 125H2603.01L2703 356.143H2725L2625.01 125Z" fill="#31CDFE"/>
<path d="M2625.01 125H2603.01L2703 356.143H2725L2625.01 125Z" fill="#31CDFE"/>
</g>
<path id="Rectangle 92" d="M2635 51H2657L2525 356.143H2503L2635 51Z" fill="#1283EB"/>
<path id="Rectangle 93" d="M2614 0H2636L2482 356H2460L2614 0Z" fill="#1433A4"/>
<path id="Rectangle 94" d="M2636 50.8571H2614L2746 356H2768L2636 50.8571Z" fill="#355DEB"/>
<path id="Rectangle 95" d="M2625.19 25H2647.19L2504 356H2482L2625.19 25Z" fill="#355DEB"/>
<path id="Rectangle 96" d="M2636 0H2614L2768 356H2790L2636 0Z" fill="#1433A4"/>
<g id="The L">
<rect id="Rectangle 2" x="259" width="22" height="356" fill="#1433A4"/>
<rect id="Rectangle 3" x="281" y="356" width="22" height="248" transform="rotate(-90 281 356)" fill="#1433A4"/>
<rect id="Rectangle 4" x="281" width="22" height="334" fill="#355DEB"/>
<rect id="Rectangle 5" x="303" y="334" width="22" height="226" transform="rotate(-90 303 334)" fill="#355DEB"/>
<rect id="Rectangle 6" x="303" width="22" height="312" fill="#1283EB"/>
<rect id="Rectangle 7" x="325" y="312" width="22" height="204" transform="rotate(-90 325 312)" fill="#1283EB"/>
<rect id="Rectangle 8" x="325" width="22" height="290" fill="#31CDFE"/>
<rect id="Rectangle 9" x="347" y="290" width="22" height="182" transform="rotate(-90 347 290)" fill="#31CDFE"/>
<rect id="Rectangle 10" x="347" width="20" height="268" fill="#7DE8FF"/>
<rect id="Rectangle 11_2" x="367" y="268" width="20" height="162" transform="rotate(-90 367 268)" fill="#7DE8FF"/>
</g>
<rect id="Rectangle 2_2" x="2127" width="22" height="356" fill="#1433A4"/>
<rect id="Rectangle 4_2" x="2149" width="22" height="356" fill="#355DEB"/>
<rect id="Rectangle 6_2" x="2171" width="22" height="356" fill="#1283EB"/>
<rect id="Rectangle 8_2" x="2193" width="22" height="356" fill="#31CDFE"/>
<rect id="Rectangle 10_2" x="2215" width="20" height="356" fill="#7DE8FF"/>
<rect id="Rectangle 72" width="22" height="356" transform="matrix(-1 0 0 1 2456 0)" fill="#1433A4"/>
<rect id="Rectangle 73" width="22" height="356" transform="matrix(-1 0 0 1 2434 0)" fill="#355DEB"/>
<rect id="Rectangle 74" width="22" height="356" transform="matrix(-1 0 0 1 2412 0)" fill="#1283EB"/>
<rect id="Rectangle 75" width="22" height="356" transform="matrix(-1 0 0 1 2390 0)" fill="#31CDFE"/>
<rect id="Rectangle 76" width="20" height="356" transform="matrix(-1 0 0 1 2368 0)" fill="#7DE8FF"/>
<g id="The L_2">
<rect id="Rectangle 2_3" x="1234" y="3.8147e-06" width="22" height="356" fill="#1433A4"/>
<rect id="Rectangle 4_3" x="1256" y="3.8147e-06" width="22" height="356" fill="#355DEB"/>
<rect id="Rectangle 6_3" x="1278" y="3.8147e-06" width="22" height="356" fill="#1283EB"/>
<rect id="Rectangle 8_3" x="1300" y="3.8147e-06" width="22" height="356" fill="#31CDFE"/>
<rect id="Rectangle 10_3" x="1322" y="3.8147e-06" width="20" height="356" fill="#7DE8FF"/>
</g>
<g id="The L_3">
<rect id="Rectangle 2_4" x="806" width="22" height="356" fill="#1433A4"/>
<rect id="Rectangle 3_2" x="828" y="356" width="22" height="227" transform="rotate(-90 828 356)" fill="#1433A4"/>
<rect id="Rectangle 4_4" x="828" width="22" height="334" fill="#355DEB"/>
<rect id="Rectangle 5_2" x="850" y="334" width="22" height="205" transform="rotate(-90 850 334)" fill="#355DEB"/>
<rect id="Rectangle 6_4" x="850" width="22" height="312" fill="#1283EB"/>
<rect id="Rectangle 7_2" x="872" y="312" width="22" height="183" transform="rotate(-90 872 312)" fill="#1283EB"/>
<rect id="Rectangle 8_4" x="872" width="22" height="290" fill="#31CDFE"/>
<rect id="Rectangle 9_2" x="894" y="290" width="22" height="161" transform="rotate(-90 894 290)" fill="#31CDFE"/>
<rect id="Rectangle 10_4" x="894" width="20" height="268" fill="#7DE8FF"/>
<rect id="Rectangle 12" x="828" y="22" width="22" height="227" transform="rotate(-90 828 22)" fill="#1433A4"/>
<rect id="Rectangle 15" x="894" y="88" width="22" height="161" transform="rotate(-90 894 88)" fill="#31CDFE"/>
<rect id="Rectangle 14" x="872" y="66" width="22" height="183" transform="rotate(-90 872 66)" fill="#1283EB"/>
<rect id="Rectangle 13" x="850" y="44" width="22" height="205" transform="rotate(-90 850 44)" fill="#355DEB"/>
<rect id="Rectangle 11_3" x="914" y="268" width="20" height="141" transform="rotate(-90 914 268)" fill="#7DE8FF"/>
<rect id="Rectangle 16" x="914" y="108" width="20" height="141" transform="rotate(-90 914 108)" fill="#7DE8FF"/>
</g>
<rect id="Rectangle 11_4" x="914" y="208" width="60" height="86" transform="rotate(-90 914 208)" fill="#7DE8FF"/>
<rect id="Rectangle 12_2" width="22" height="356" transform="matrix(1 0 0 -1 0 356)" fill="#1433A4"/>
<rect id="Rectangle 13_2" width="22" height="152" transform="matrix(0 1 1 0 22 0)" fill="#1433A4"/>
<rect id="Rectangle 14_2" width="22" height="334" transform="matrix(1 0 0 -1 22 356)" fill="#355DEB"/>
<rect id="Rectangle 15_2" width="22" height="130" transform="matrix(0 1 1 0 44 22)" fill="#355DEB"/>
<rect id="Rectangle 17" x="894" y="189" width="22" height="82" transform="rotate(-90 894 189)" fill="#31CDFE"/>
<rect id="Rectangle 16_2" width="22" height="312" transform="matrix(1 0 0 -1 44 356)" fill="#1283EB"/>
<rect id="Rectangle 17_2" width="22" height="109" transform="matrix(0 1 1 0 65 44)" fill="#1283EB"/>
<rect id="Rectangle 18" width="22" height="290" transform="matrix(1 0 0 -1 66 356)" fill="#31CDFE"/>
<rect id="Rectangle 19" width="36" height="86" transform="matrix(0 1 1 0 88 66)" fill="#31CDFE"/>
<rect id="Rectangle 23" width="22" height="152" transform="matrix(0 -1 -1 0 174 146)" fill="#355DEB"/>
<rect id="Rectangle 29" width="22" height="152" transform="matrix(0 -1 -1 0 174 192)" fill="#355DEB"/>
<rect id="Rectangle 22" width="24" height="152" transform="matrix(0 -1 -1 0 174 170)" fill="#1433A4"/>
<path id="Ellipse 1" d="M174 168C196.278 168 217.644 159.15 233.397 143.397C249.15 127.644 258 106.278 258 84C258 61.7218 249.15 40.3561 233.397 24.603C217.644 8.84998 196.278 3.36391e-06 174 0L174 21.9996C190.444 21.9996 206.214 28.5318 217.841 40.1591C229.468 51.7864 236 67.5565 236 84C236 100.444 229.468 116.214 217.841 127.841C206.214 139.468 190.444 146 174 146V168Z" fill="#1433A4"/>
<ellipse id="Ellipse 9" cx="174" cy="252" rx="27" ry="38" fill="#31CDFE"/>
<path id="Ellipse 8" d="M174 312C186.2 312 197.9 305.679 206.527 294.426C215.154 283.174 220 267.913 220 252C220 236.087 215.154 220.826 206.527 209.574C197.9 198.321 186.2 192 174 192V214C180.832 214 188.384 220.94 193.215 227.241C198.046 233.542 200.76 243.089 200.76 252C200.76 260.911 198.046 270.458 193.215 276.759C188.384 283.06 180.832 290 174 290L174 312Z" fill="#1283EB"/>
<path id="Ellipse 7" d="M174 334C191.504 334 208.292 325.361 220.669 309.983C233.046 294.605 240 273.748 240 252C240 230.252 233.046 209.395 220.669 194.017C208.292 178.639 191.504 170 174 170V192C186.157 192 197.816 201.051 206.412 211.731C215.008 222.411 219.837 236.896 219.837 252C219.837 267.104 215.008 281.589 206.412 292.269C197.816 302.949 186.157 312 174 312V334Z" fill="#355DEB"/>
<path id="Ellipse 6" d="M174 356C196.809 356 218.683 344.938 234.811 325.246C250.939 305.555 260 278.848 260 251C260 223.152 250.939 196.445 234.811 176.754C218.683 157.062 196.809 146 174 146L174 170C191.471 170 208.227 179.044 220.581 194.127C232.936 209.211 239.876 229.669 239.876 251C239.876 272.331 232.936 292.789 220.581 307.873C208.227 322.956 191.471 334 174 334V356Z" fill="#1433A4"/>
<path id="Ellipse 3" d="M174 146C190.443 146 206.213 139.468 217.841 127.841C229.468 116.213 236 100.443 236 84C236 67.5566 229.468 51.7866 217.841 40.1594C206.213 28.5321 190.443 22 174 22V44.0038C184.608 44.0038 194.781 48.2177 202.282 55.7184C209.782 63.2192 213.996 73.3924 213.996 84C213.996 94.6077 209.782 104.781 202.282 112.282C194.781 119.782 184.608 123.996 174 123.996V146Z" fill="#355DEB"/>
<path id="Ellipse 4" d="M174 124C184.609 124 194.783 119.786 202.284 112.284C209.786 104.783 214 94.6087 214 84C214 73.3913 209.786 63.2172 202.284 55.7157C194.783 48.2143 184.609 44 174 44L174 66C178.774 66 183.352 67.8964 186.728 71.2721C190.104 74.6477 192 79.2261 192 84C192 88.7739 190.104 93.3523 186.728 96.7279C183.352 100.104 178.774 102 174 102V124Z" fill="#1283EB"/>
<ellipse id="Ellipse 5" cx="175" cy="84" rx="17" ry="18" fill="#31CDFE"/>
<path id="Rectangle 20" d="M85 74V94L164 94C169.523 94 174 89.5228 174 84C174 78.4772 169.523 74 164 74L85 74Z" fill="#7DE8FF"/>
<rect id="Rectangle 33" width="37" height="86" transform="matrix(0 -1 -1 0 174 273)" fill="#7DE8FF"/>
<rect id="Rectangle 24" width="22" height="109" transform="matrix(0 -1 -1 0 174 124)" fill="#1283EB"/>
<rect id="Rectangle 26" width="22" height="130" transform="matrix(0 -1 -1 0 174 334)" fill="#355DEB"/>
<rect id="Rectangle 27" width="22" height="108" transform="matrix(0 -1 -1 0 174 312)" fill="#1283EB"/>
<g id="Rectangle 31">
<rect width="22" height="86" transform="matrix(0 -1 -1 0 174 290)" fill="#31CDFE"/>
<rect width="22" height="86" transform="matrix(0 -1 -1 0 174 290)" fill="#31CDFE"/>
<rect width="22" height="86" transform="matrix(0 -1 -1 0 174 290)" fill="#31CDFE"/>
</g>
<g id="Rectangle 32">
<rect width="22" height="86" transform="matrix(0 -1 -1 0 174 236)" fill="#31CDFE"/>
<rect width="22" height="86" transform="matrix(0 -1 -1 0 174 236)" fill="#31CDFE"/>
<rect width="22" height="86" transform="matrix(0 -1 -1 0 174 236)" fill="#31CDFE"/>
</g>
<rect id="Rectangle 30" width="22" height="108" transform="matrix(0 -1 -1 0 174 214)" fill="#1283EB"/>
<rect id="Rectangle 25" width="22" height="152" transform="matrix(0 -1 -1 0 174 356)" fill="#1433A4"/>
<ellipse id="Ellipse 10" cx="172" cy="252" rx="11" ry="16" fill="#7DE8FF"/>
<path id="Ellipse 11" d="M793 222C793 257.539 779.093 291.622 754.338 316.752C729.583 341.882 696.009 356 661 356C625.991 356 592.417 341.882 567.662 316.752C542.907 291.622 529 257.539 529 222L637.244 222C637.244 228.396 639.746 234.53 644.202 239.053C648.657 243.576 654.699 246.116 661 246.116C667.301 246.116 673.343 243.576 677.798 239.053C682.254 234.53 684.756 228.396 684.756 222H793Z" fill="#1433A4"/>
<path id="Ellipse 15" d="M771 222C771 251.616 759.411 280.685 738.782 301.627C718.153 322.568 690.174 334.333 661 334.333C631.826 334.333 603.847 322.568 583.218 301.627C562.589 280.685 551 251.616 551 222H637C637 228.483 639.457 235.367 643.973 239.952C648.489 244.536 654.614 247.111 661 247.111C667.386 247.111 673.511 244.536 678.027 239.952C682.543 235.367 685 228.483 685 222H771Z" fill="#355DEB"/>
<path id="Ellipse 14" d="M749 222C749 233.731 745.724 246.681 741.301 257.52C736.879 268.358 730.397 278.206 722.225 286.502C714.054 294.797 704.353 301.377 693.676 305.867C682.999 310.356 671.556 312.667 660 312.667C648.444 312.667 637.001 310.356 626.324 305.867C615.647 301.377 605.946 294.797 597.775 286.502C589.603 278.206 583.121 268.358 578.699 257.52C574.276 246.681 573 233.731 573 222H636C636 225.231 636.39 229.764 637.608 232.749C638.826 235.734 640.611 238.446 642.862 240.731C645.113 243.016 647.784 244.828 650.725 246.064C653.666 247.301 656.817 247.937 660 247.937C663.183 247.937 666.334 247.301 669.275 246.064C672.216 244.828 674.887 243.016 677.138 240.731C679.389 238.446 681.174 235.734 682.392 232.749C683.61 229.764 684.5 225.231 684.5 222H749Z" fill="#1283EB"/>
<path id="Ellipse 13" d="M727 222C727 239.77 720.046 257.811 707.669 270.376C695.292 282.941 678.504 290 661 290C643.496 290 626.708 282.941 614.331 270.376C601.954 257.811 595 239.77 595 222H630.5C630.5 230.214 633.706 239.091 639.427 244.9C645.149 250.708 652.909 253.971 661 253.971C669.091 253.971 676.851 250.708 682.573 244.9C688.294 239.091 691.5 230.214 691.5 222H727Z" fill="#31CDFE"/>
<path id="Ellipse 12" d="M705 222C705 227.866 703.862 234.341 701.651 239.76C699.439 245.179 696.198 250.103 692.113 254.251C688.027 258.398 683.176 261.689 677.838 263.933C672.5 266.178 666.778 267.333 661 267.333C655.222 267.333 649.5 266.178 644.162 263.933C638.824 261.689 633.973 258.398 629.887 254.251C625.802 250.103 622.561 245.179 620.349 239.76C618.138 234.341 617 227.866 617 222H639C639 224.925 639.627 228.488 640.729 231.19C641.832 233.893 643.448 236.348 645.485 238.416C647.523 240.485 649.942 242.125 652.604 243.245C655.266 244.364 658.119 244.94 661 244.94C663.881 244.94 666.734 244.364 669.396 243.245C672.058 242.125 674.477 240.485 676.515 238.416C678.552 236.348 680.168 233.893 681.271 231.19C682.373 228.488 683 224.925 683 222H705Z" fill="#7DE8FF"/>
<rect id="Rectangle 12_3" x="529" width="22" height="222" fill="#1433A4"/>
<rect id="Rectangle 13_3" x="771" width="22" height="222" fill="#1433A4"/>
<rect id="Rectangle 40" x="617" width="22" height="222" fill="#7DE8FF"/>
<rect id="Rectangle 41" x="683" width="22" height="222" fill="#7DE8FF"/>
<rect id="Rectangle 38" x="595" width="22" height="222" fill="#31CDFE"/>
<rect id="Rectangle 39" x="705" width="22" height="222" fill="#31CDFE"/>
<rect id="Rectangle 36" x="573" width="22" height="222" fill="#1283EB"/>
<rect id="Rectangle 37" x="727" width="22" height="222" fill="#1283EB"/>
<rect id="Rectangle 34" x="551" width="22" height="222" fill="#355DEB"/>
<rect id="Rectangle 35" x="749" width="22" height="222" fill="#355DEB"/>
<path id="Vector 1" d="M1375 0H1342L1256 86V119L1375 0Z" fill="#1433A4"/>
<path id="Vector 10" d="M1474 0H1441L1322 119V152L1474 0Z" fill="#31CDFE"/>
<path id="Vector 11" d="M1507 0H1474L1342 132V165L1507 0Z" fill="#7DE8FF"/>
<path id="Vector 12" d="M1507 356H1474L1342 197.5V164.5L1507 356Z" fill="#7DE8FF"/>
<path id="Vector 2" d="M1397 0H1375L1256 119V152L1397 0Z" fill="#355DEB"/>
<path id="Vector 3" d="M1408 0H1375L1278 97V130L1408 0Z" fill="#355DEB"/>
<path id="Vector 4" d="M1441 0H1408L1300 108V141L1441 0Z" fill="#1283EB"/>
<path id="Vector 6" d="M1375 356H1342L1256 221V188L1375 356Z" fill="#1433A4"/>
<path id="Vector 7" d="M1408 356H1375L1278 218.5V185.5L1408 356Z" fill="#355DEB"/>
<path id="Vector 8" d="M1441 356H1408L1278 185.5V152.5L1441 356Z" fill="#1283EB"/>
<path id="Vector 9" d="M1474 356H1441L1300 180V147L1474 356Z" fill="#31CDFE"/>
<rect id="Rectangle 71" width="48" height="87" transform="matrix(0 -1 -1 0 2030 108)" fill="#7DE8FF"/>
<path id="Rectangle 65" d="M2057 356H2079L1915 146H1893L2057 356Z" fill="#1283EB"/>
<path id="Rectangle 67" d="M2100.5 356H2122.5L1959 146H1937L2100.5 356Z" fill="#1433A4"/>
<path id="Rectangle 66" d="M2078.5 356H2100.5L1937 146H1915L2078.5 356Z" fill="#355DEB"/>
<path id="Rectangle 69" d="M2035 356H2057L1893 146H1871L2035 356Z" fill="#31CDFE"/>
<path id="Rectangle 70" d="M2013 356H2035L1871 146H1849L2013 356Z" fill="#7DE8FF"/>
<rect id="Rectangle 52" width="22" height="356" transform="matrix(1 0 0 -1 1850 356)" fill="#1433A4"/>
<rect id="Rectangle 55" width="22" height="120" transform="matrix(0 1 1 0 1872 0)" fill="#1433A4"/>
<rect id="Rectangle 56" width="22" height="334" transform="matrix(1 0 0 -1 1872 356)" fill="#355DEB"/>
<rect id="Rectangle 57" width="22" height="98" transform="matrix(0 1 1 0 1894 22)" fill="#355DEB"/>
<rect id="Rectangle 58" width="22" height="312" transform="matrix(1 0 0 -1 1894 356)" fill="#1283EB"/>
<rect id="Rectangle 59" width="22" height="77" transform="matrix(0 1 1 0 1915 44)" fill="#1283EB"/>
<rect id="Rectangle 60" width="22" height="290" transform="matrix(1 0 0 -1 1916 356)" fill="#31CDFE"/>
<rect id="Rectangle 62" width="20" height="290" transform="matrix(1 0 0 -1 1938 356)" fill="#7DE8FF"/>
<path id="Ellipse 16" d="M1992 168C2014.28 168 2035.64 159.15 2051.4 143.397C2067.15 127.644 2076 106.278 2076 84C2076 61.7218 2067.15 40.3561 2051.4 24.603C2035.64 8.84998 2014.28 3.36391e-06 1992 0L1992 21.9996C2008.44 21.9996 2024.21 28.5318 2035.84 40.1591C2047.47 51.7864 2054 67.5565 2054 84C2054 100.444 2047.47 116.214 2035.84 127.841C2024.21 139.468 2008.44 146 1992 146V168Z" fill="#1433A4"/>
<rect id="Rectangle 54" width="22" height="34" transform="matrix(0 -1 -1 0 1992 146)" fill="#355DEB"/>
<path id="Ellipse 17" d="M1992 146C2008.44 146 2024.21 139.468 2035.84 127.841C2047.47 116.213 2054 100.443 2054 84C2054 67.5566 2047.47 51.7866 2035.84 40.1594C2024.21 28.5321 2008.44 22 1992 22V44.0038C2002.61 44.0038 2012.78 48.2177 2020.28 55.7184C2027.78 63.2192 2032 73.3924 2032 84C2032 94.6077 2027.78 104.781 2020.28 112.282C2012.78 119.782 2002.61 123.996 1992 123.996V146Z" fill="#355DEB"/>
<path id="Ellipse 18" d="M1992 124C2002.61 124 2012.78 119.786 2020.28 112.284C2027.79 104.783 2032 94.6087 2032 84C2032 73.3913 2027.79 63.2172 2020.28 55.7157C2012.78 48.2143 2002.61 44 1992 44L1992 66C1996.77 66 2001.35 67.8964 2004.73 71.2721C2008.1 74.6477 2010 79.2261 2010 84C2010 88.7739 2008.1 93.3523 2004.73 96.7279C2001.35 100.104 1996.77 102 1992 102V124Z" fill="#1283EB"/>
<rect id="Rectangle 53" width="22" height="34" transform="matrix(0 -1 -1 0 1992 168)" fill="#1433A4"/>
<rect id="Rectangle 64" width="22" height="34" transform="matrix(0 -1 -1 0 1992 124)" fill="#1283EB"/>
<path id="Rectangle 77" d="M2270 231.143H2248L2347.99 0H2369.99L2270 231.143Z" fill="#7DE8FF"/>
<g id="Rectangle 78">
<path d="M2291.99 231.143H2313.99L2214 0H2192L2291.99 231.143Z" fill="#31CDFE"/>
<path d="M2291.99 231.143H2313.99L2214 0H2192L2291.99 231.143Z" fill="#31CDFE"/>
</g>
<path id="Rectangle 79" d="M2313.99 231.143H2335.99L2236 0H2214L2313.99 231.143Z" fill="#7DE8FF"/>
<path id="Rectangle 80" d="M2282 305.143H2260L2392 0H2414L2282 305.143Z" fill="#1283EB"/>
<g id="Rectangle 81">
<path d="M2292.01 231.143H2270.01L2370 0H2392L2292.01 231.143Z" fill="#31CDFE"/>
<path d="M2292.01 231.143H2270.01L2370 0H2392L2292.01 231.143Z" fill="#31CDFE"/>
</g>
<path id="Rectangle 82" d="M2302 305.143H2324L2192 0H2170L2302 305.143Z" fill="#1283EB"/>
<path id="Rectangle 83" d="M2280 356H2302L2149 0.142853H2127L2280 356Z" fill="#1433A4"/>
<path id="Rectangle 84" d="M2303 305.286H2281L2413 0.142853H2435L2303 305.286Z" fill="#355DEB"/>
<path id="Rectangle 85" d="M2290.5 331L2313.26 330L2171 0.142914H2149L2290.5 331Z" fill="#355DEB"/>
<path id="Rectangle 86" d="M2302 356H2280L2434 0.142853H2456L2302 356Z" fill="#1433A4"/>
</g>
</svg>
