<svg width="311" height="280" viewBox="0 0 311 280" fill="none" xmlns="http://www.w3.org/2000/svg">
<circle cx="136" cy="143" r="131" fill="white" stroke="white" stroke-width="6"/>
<path d="M25.1488 207C36.383 226.458 52.5412 242.617 71.9994 253.851C91.4576 265.085 113.53 271 135.999 271C158.467 271 180.54 265.086 199.998 253.852C219.457 242.618 235.615 226.46 246.85 207.002L136 143L25.1488 207Z" fill="#F01010"/>
<path d="M246.851 207C258.085 187.542 264 165.469 264 143.001C264 120.532 258.086 98.4595 246.852 79.0012C235.618 59.5428 219.46 43.3843 200.002 32.1497C180.544 20.9152 158.471 15.0005 136.003 15L136 143L246.851 207Z" fill="#1410F0"/>
<path d="M136 15C113.532 15 91.4589 20.9143 72.0006 32.1484C52.5422 43.3825 36.3838 59.5407 25.1494 78.9988C13.915 98.457 8.00034 120.53 7.99998 142.998C7.99963 165.466 13.9136 187.539 25.1474 206.998L136 143L136 15Z" fill="#ECF010"/>
<path d="M198.442 254.736C217.262 244.219 233.122 229.118 244.548 210.834C255.973 192.55 262.596 171.677 263.8 150.15L136 143L198.442 254.736Z" fill="#8010F0" fill-opacity="0.5"/>
<path d="M198.498 31.295C179.683 20.7679 158.513 15.1641 136.953 15.0035C115.394 14.843 94.1427 20.1309 75.1725 30.3767L136 143L198.498 31.295Z" fill="#2FF010" fill-opacity="0.5"/>
<path d="M8.18246 149.832C9.33354 171.367 15.9072 192.263 27.2932 210.578C38.6792 228.894 54.5084 244.036 73.311 254.598L136 143L8.18246 149.832Z" fill="#F09610" fill-opacity="0.5"/>
</svg>
