<svg width="760" height="474" viewBox="0 0 760 474" fill="none" xmlns="http://www.w3.org/2000/svg">
<g id="Noodle">
<g id="Group 1">
<path id="LeftEar" d="M259.5 376L277.5 321.5C239.756 262.771 223.676 265.522 196.5 281C203.119 330.574 216.904 351.352 259.5 376Z" fill="#E1D7BB" stroke="black" stroke-width="3"/>
<path id="Vector 23" d="M200 286C229.236 282.36 245.237 291.829 269.178 338.58L244.178 346.08C214 357.5 198.5 310 200 286Z" fill="#CEB996"/>
<path id="Vector 24" d="M248 303.5C232.085 287.348 221.35 281.896 196 284.5" stroke="black" stroke-width="3"/>
<path id="Vector 10" d="M656 67C630.811 95.5277 618.596 106.804 600 119L626 263C627.458 315.093 644.179 325.672 683 334C660.082 312.968 649.396 300.447 647 272.5C656.012 276.975 663.753 284.619 679 301C666.124 281.065 660.105 270.714 657 257.5C678.567 283.317 691.184 294.803 714 313.5C704.812 291.93 692 274.5 685.5 252.5C702.5 264.5 713 269.5 734 268C700 257.5 689.861 252.12 670.5 222.5C697.542 234.135 704.811 232.367 719 230.5C702.218 225.696 693.651 222.846 690.5 215.5C718.561 221.969 728.853 219.252 743 209.5C732.021 212.347 681.15 196.04 672.5 186.5C688.932 188.939 734.086 184.151 730.5 183C717.437 179.313 707.74 176.787 688.5 168C715.869 162.485 725.014 158.35 738.5 150.5C694.035 149.233 676.704 151.195 649.5 156C706.619 140.471 727.043 132.163 759 117.5C701.786 127.046 674.135 130.763 643.5 130.5C666.934 116.182 679.144 106.918 701 90.5C679.783 96.5634 668.574 99.3194 643.5 109C656.914 91.1619 662.945 79.0891 671.5 54.5C663.88 63.6825 657.177 72.4345 638.5 98C648.499 83.9471 651.978 77.3768 656 67Z" fill="#0E1116" stroke="black"/>
<path id="Vector 11" d="M192 82.5C174.354 65.2363 161.689 55.0614 134 36C183.053 49.3871 208.815 61.2605 238 124.5L225 223.5C209.769 284.122 197.223 318.006 158 378C165.58 350.727 169.826 335.341 177 300C157.92 335.141 146.783 357.261 125.5 404.5C133.759 358.913 139.837 339.343 152.5 312C133.01 340.422 118.902 351.895 83.5 358C121.744 327.259 139.445 309.66 158 277C131.263 289.535 114.936 298.549 83.5 318C98.6308 300.735 106.636 290.498 119 270C97.6166 289.35 82.6849 303.851 53 333.5C64.354 320 70.9827 313.506 80.5 292.5C103.302 241.75 108.711 239.916 122 223.5C71.5623 253.492 45.2537 255.424 0.5 242.5C54.3359 236.53 78.6106 225.05 113.5 193C73.7578 212.738 50.0384 219.697 3.5 220C29.9891 215.827 41.1448 212.215 53 203C76.4024 183.018 92.8363 173.65 134 163.5C108.749 156.79 93.3222 144.516 64 110.5C104.923 135.646 130.69 140.23 179 140.5C142.515 124.755 120.352 110.925 77 75C117.617 92.724 139.438 101.491 175 113C147.836 91.1048 137.168 79.5442 125 60C148.636 75.2994 162.272 83.8962 192 99.5C184.692 87.083 176.347 79.6319 158.5 66C172.763 75.873 180.272 79.9893 192 82.5Z" fill="#0E1116" stroke="black"/>
<path id="Vector 12" d="M598.5 243.5C602.124 301.955 608.473 336.082 637.5 402.5C625.301 389.376 618.476 381.413 606.5 359C605.18 383.402 606.823 404.189 610 442C605.955 420.53 604.039 409.075 596 381C593.577 398.918 596.164 414.898 604.5 449C593.24 416.474 586.152 400.683 583.5 341L598.5 243.5Z" fill="#0E1116" stroke="black"/>
<path id="Vector 13" d="M272 455.5C252.09 425.104 242.585 404.625 251.5 314.5L272 339.5C254.438 386.573 257.275 411.685 272 455.5Z" fill="#0E1116" stroke="black"/>
<path id="Head" d="M582.714 374.851C563.715 413.351 493.715 470.351 487.715 471.851C481.715 473.352 401.214 454.351 338.714 425.851C276.214 397.351 235.214 279.351 226.714 251.351C218.214 223.352 216.977 194.851 227.714 123.851C252.215 -38.1486 617.214 -40.6486 617.214 163.351V251.351C617.214 303.851 601.714 336.351 582.714 374.851Z" fill="#E1D7BB" stroke="black" stroke-width="3"/>
<path id="HeadShadow" d="M474 454.5C440.661 454.865 414.565 449.728 361 435.5C414.892 455.041 442.428 462.964 487 472C564.284 415.425 587.958 377.726 610.5 304.5L512.5 278.5L482.5 317C499.393 333.799 508.48 343.306 521.5 361C508.941 403.536 498.83 424.299 474 454.5Z" fill="#CEB996"/>
<ellipse id="Ellipse 7" cx="425.653" cy="107.725" rx="43" ry="106.316" transform="rotate(56.3332 425.653 107.725)" fill="#CEB996"/>
<path id="HeadOutline" d="M582.714 374.851C563.715 413.351 493.715 470.351 487.715 471.851C481.715 473.352 401.214 454.351 338.714 425.851C276.214 397.351 235.214 279.351 226.714 251.351C218.214 223.352 216.977 194.851 227.714 123.851C252.215 -38.1486 617.214 -40.6486 617.214 163.351V251.351C617.214 303.851 601.714 336.351 582.714 374.851Z" stroke="black" stroke-width="3"/>
<path id="Vector 20" d="M474.5 349C436 352.5 411.785 361.866 377 377C383.428 380.592 383.249 383.35 458 373.5C474.275 380.131 488.714 379.897 520.5 375L524.5 354.5C514.693 347.531 513 345.5 474.5 349Z" fill="#CEB996"/>
<ellipse id="Ellipse 5" cx="345.5" cy="368.001" rx="8.15702" ry="12.5974" transform="rotate(31.1737 345.5 368.001)" fill="#CEB996"/>
<path id="Vector 14" d="M348.5 365C361.077 376.649 377.5 382.388 400 374.5C450.554 356.777 483.88 354.517 549.5 360" stroke="black" stroke-width="2"/>
<path id="Vector 22" d="M271 236.5L284.5 230L283 249.5L271 247.5L252 261.5V255.5L271 242.5V236.5Z" fill="#CEB996"/>
<path id="Vector 21" d="M270 231.5L283.5 225L282 244.5L270 242.5L251 256.5V250.5L270 237.5V231.5Z" fill="black" stroke="black"/>
<path id="Vector 4" d="M262.001 304.5C262.001 281.5 239.501 238.5 289.001 208.5C423.001 147 527.501 108.5 517.001 20C456.5 -18.5 211 -15.5 211.001 180C211.001 239.5 248.271 347.214 308.501 465C283.001 383 262.001 304.5 262.001 304.5Z" fill="#0E1116" stroke="black"/>
<path id="Rectangle 1" d="M247.5 196.98L256.181 181.212L302.923 196.98L294.241 212.748L247.5 196.98Z" fill="#E3E3E3"/>
<path id="Vector 9" d="M465.5 286.5C463 269 470.5 249.32 467.5 245C455 227 441.5 254 446.5 238.5C451.5 223 474.5 230.5 473.5 241C471.498 262.016 486.346 260.279 495.673 282.389C505 304.5 468 304 465.5 286.5Z" fill="#CEB996"/>
<ellipse id="Ellipse 6" cx="370.513" cy="299.543" rx="55" ry="32" transform="rotate(-4.8583 370.513 299.543)" fill="#CEB996"/>
<circle id="Ellipse 1" cx="363" cy="244" r="81.5" fill="#57B384" stroke="black" stroke-width="3"/>
<path id="Vector 5" d="M616.5 229C612.706 213.833 604.285 185.798 589 154C540.927 129.686 527.115 104.438 513 37L511.5 18C606 38 631 117 616.5 229Z" fill="#0E1116" stroke="black"/>
<circle id="Ellipse 2" cx="555" cy="244" r="81.5" fill="#DC4D85" stroke="black" stroke-width="3"/>
<path id="Vector 1" d="M437.5 210H481" stroke="black" stroke-width="4"/>
<path id="Vector 2" d="M444.5 243C449.5 226 469 226.5 474 243" stroke="black" stroke-width="3"/>
<path id="Vector 6" d="M424.5 302.5C437.5 292 457 282.5 467.5 283C478 283.5 486.5 292 493 300C499.5 308 501.175 316 493 314.5C472.235 310.69 438 315 430.5 316C423 317 411.5 313 424.5 302.5Z" fill="#CEB996"/>
<ellipse id="Ellipse 3" cx="452" cy="302.765" rx="5.93033" ry="11.6594" transform="rotate(39.5846 452 302.765)" fill="#483E3E"/>
<ellipse id="Ellipse 4" cx="479.225" cy="302.651" rx="5.93033" ry="10.0294" transform="rotate(30.7515 479.225 302.651)" fill="#483E3E"/>
<path id="Vector 7" d="M433.193 297.54C433.768 297.157 433.923 296.381 433.54 295.807C433.157 295.232 432.381 295.077 431.807 295.46L433.193 297.54ZM431.807 295.46C426.512 298.99 422.772 302.163 420.496 304.924C418.28 307.612 417.175 310.259 418.013 312.554C418.855 314.857 421.379 316.062 424.491 316.577C427.695 317.107 431.995 316.996 437.181 316.237L436.819 313.763C431.755 314.504 427.743 314.581 424.899 314.111C421.965 313.625 420.708 312.643 420.362 311.696C420.013 310.741 420.314 309.075 422.425 306.514C424.478 304.025 427.988 301.01 433.193 297.54L431.807 295.46Z" fill="black"/>
<path id="Vector 8" d="M486.151 294.418C485.644 293.949 485.614 293.158 486.082 292.651C486.551 292.144 487.342 292.114 487.849 292.582L486.151 294.418ZM487.849 292.582C492.895 297.25 496.136 301.206 497.857 304.481C499.562 307.727 499.909 310.596 498.565 312.78C497.248 314.92 494.609 315.892 491.595 316.121C488.527 316.355 484.748 315.853 480.662 314.703L481.339 312.297C485.252 313.397 488.723 313.833 491.405 313.629C494.141 313.42 495.752 312.58 496.435 311.47C497.091 310.404 497.189 308.585 495.643 305.644C494.114 302.731 491.105 299 486.151 294.418L487.849 292.582Z" fill="black"/>
<path id="Vector 15" d="M399.5 375L415 370L417 377.5L402.5 378.5L399.5 375Z" fill="#ECECEC" stroke="black" stroke-width="2"/>
<path id="Vector 16" d="M416 370L438 364L441 377.5H417.5L416 370Z" fill="#ECECEC" stroke="black" stroke-width="2"/>
<path id="Vector 17" d="M438.5 364L472 358.5V374.5C461.454 376.528 455.047 377.189 442.5 377.5L438.5 364Z" fill="#ECECEC" stroke="black" stroke-width="2"/>
<path id="Vector 18" d="M472 359L499.5 357.5L497.5 365.5C492 369 483.5 372.5 472 374.5V359Z" fill="#ECECEC" stroke="black" stroke-width="2"/>
<path id="Vector 19" d="M500 357.5L520.5 358L521 362C515.5 365.5 499 365 499 365L500 357.5Z" fill="#ECECEC" stroke="black" stroke-width="2"/>
<path id="Vector 25" d="M445.5 105C461.063 87.6471 469.383 76.703 482.5 52C468.832 62.1701 460.911 67.3506 445.5 74C451.985 66.6572 454.955 62.5892 458 55.5C447.076 65.3926 438.691 70.0094 419.5 76.5C425.626 74.1916 437.063 58.8232 438 55.5C435.655 60.8166 395 82 395 82C406.306 72.5185 412.22 66.9903 419.5 55.5C404.99 67.6052 394.778 71.359 375.5 76.5C388.103 67.4166 393.336 61.9614 401.5 52C387.216 58.6096 379.106 63.5192 364.5 74C370.405 61.9866 375.084 55.8267 385 45.5C368.038 53.2009 358.87 59.6117 343 74C352.525 63.1524 356.818 56.9304 362 45.5C348.299 59.2934 337.882 66.775 318 80C327.621 67.4751 332.467 61.1137 340.5 50.5C328.73 57.9237 321.296 63.0424 306.5 74C320.906 58.1754 326.954 49.3084 335.5 33.5C322.29 47.083 313.926 53.6188 297 63C306.567 44.8267 313.27 36.1367 326 21.5C300.424 31.4694 286.246 34.4934 259.5 63C231 93.3765 213.392 146.408 223 152C220.395 127.508 259.667 77.6334 282 76.5C265.929 88.7608 259.458 98.1621 250.5 117.5C264.714 101.221 272.79 94.1568 287.5 87.5C276.412 100.429 270.297 108.819 259.5 125C278.335 108.079 288.677 99.6259 306.5 87.5C298.929 101.657 294.036 108.913 284.5 121C304.065 104.691 314.835 96.5743 333 87.5C323.121 101.6 319.047 111.548 313 131C324.868 110.191 357.5 90.5 357.5 90.5C346.67 101.721 341.694 108.234 338.5 121C355.604 105.819 364.865 100.685 381 95.5C376.759 100.559 360.905 121.188 357.5 131C380.756 107.002 392.935 96.1061 410 90.5C397.782 103.183 394.413 110.867 391 125C407.275 106.831 416.432 97.5621 433 87.5C420.658 100.589 417.987 107.922 414.5 121C425.942 108.149 427.772 102.911 458 82C454.924 89.8345 451.67 95.1991 445.5 105Z" fill="#E9E9E9" fill-opacity="0.1"/>
<path id="Vector 26" d="M549.5 96.5C537.517 81.7545 530.792 74.0166 519 46C531.073 40.2815 541.647 41.769 563 47.5C582.68 68.5686 588.247 78.1972 598.5 95.5C588.028 82.5985 582.243 76.4745 572 66.5C581.716 78.8695 586.15 85.417 592.5 96.5C581.635 82.5111 574.352 74.7595 560.5 61C570.68 75.0449 574.794 82.8148 579.5 96.5C568.444 83.804 562.326 75.9116 551.5 61C560.853 77.4979 566.577 87.041 577.5 104.5C566.166 93.0988 547.492 65.6719 545.5 63.5C544.603 62.5225 551.78 81.5673 557 91C551.147 83.3908 541.575 68.1188 540.173 65.401C541.182 68.4408 546.358 86.9259 549.5 96.5Z" fill="#E3E3E3" fill-opacity="0.1"/>
</g>
</g>
</svg>
