<svg width="824" height="821" viewBox="0 0 824 821" fill="none" xmlns="http://www.w3.org/2000/svg">
<g id="SadDuo">
<rect id="Rectangle 1" y="766" width="824" height="55" rx="27.5" fill="#E3E3E3"/>
<path id="Union" fill-rule="evenodd" clip-rule="evenodd" d="M669.5 5C731.394 24.4958 747.438 51.4862 750 123V696C759.283 696 768.185 699.688 774.749 706.251C781.312 712.815 785 721.717 785 731C785 740.283 781.312 749.185 774.749 755.749C768.185 762.312 759.283 766 750 766H74C64.7174 766 55.815 762.312 49.2513 755.749C42.6875 749.185 39 740.283 39 731C39 721.717 42.6875 712.815 49.2513 706.251C55.815 699.688 64.7174 696 74 696V123C71.5814 49.8887 88.497 26.8948 141 6.49999C171.41 -2.00984 209.293 -0.212246 254.5 20.4988C346.673 55.5862 380.462 64.7703 412 66C443.538 64.7703 477.327 55.0873 569.5 20C614.707 -0.711091 639.09 -3.50984 669.5 5Z" fill="#77C800"/>
<path id="Union_2" fill-rule="evenodd" clip-rule="evenodd" d="M407 181.767C376.453 181.767 307.387 167.802 275.497 111.941C206.271 -6.76431 196.799 61.3467 200.737 111.039C164.491 49.5065 156.499 95.9916 157.223 135.98C135.639 154.795 122 182.492 122 213.374V353.619C122 410.303 167.952 456.255 224.637 456.255C261.74 456.255 294.245 436.567 312.275 407.068L312.412 407.77C314.164 405.227 315.883 402.728 317.572 400.275C406.268 271.4 409.578 266.591 501.588 407.77L501.725 407.068C519.755 436.567 552.26 456.255 589.363 456.255C646.048 456.255 692 410.303 692 353.619V213.374C692 182.409 678.287 154.646 656.603 135.828C657.302 95.9467 649.315 49.7528 613.283 110.704C617.151 61.0429 607.566 -6.4911 538.496 111.946C506.608 167.802 437.55 181.769 407 181.771V181.767Z" fill="#8FE101"/>
<rect id="Rectangle 3" x="96.9407" y="671.264" width="89.764" height="154.073" rx="44.882" transform="rotate(-43 96.9407 671.264)" fill="#F79301"/>
<rect id="Rectangle 4" x="658.077" y="610" width="89.764" height="154.073" rx="44.882" transform="rotate(43 658.077 610)" fill="#F79301"/>
<rect id="Rectangle 5" x="147" y="165" width="190" height="243" rx="95" fill="white"/>
<rect id="Rectangle 6" x="482" y="165" width="190" height="243" rx="95" fill="white"/>
<rect id="Rectangle 7" x="165" y="187" width="155" height="198" rx="77.5" fill="#4C4E4D"/>
<rect id="Rectangle 9" x="499" y="187" width="155" height="198" rx="77.5" fill="black" fill-opacity="0.5"/>
<rect id="Rectangle 8" x="499" y="187" width="155" height="198" rx="77.5" fill="#4C4E4D"/>
<circle id="Ellipse 3" cx="207" cy="252" r="47" fill="white"/>
<circle id="Ellipse 5" cx="303.5" cy="318.5" r="30.5" fill="white"/>
<circle id="Ellipse 6" cx="636.5" cy="318.5" r="30.5" fill="white"/>
<circle id="Ellipse 4" cx="538" cy="252" r="47" fill="white"/>
<path id="Polygon 2" d="M416.065 428.857C414.58 430.098 412.42 430.098 410.935 428.857L385.156 407.32C382.287 404.923 383.982 400.25 387.721 400.25H439.279C443.018 400.25 444.713 404.923 441.844 407.32L416.065 428.857Z" fill="#8FE200"/>
<path id="Polygon 1" d="M406.875 406.689C410.329 403.481 415.671 403.481 419.125 406.689L455.966 440.906C461.959 446.472 458.02 456.5 449.841 456.5H376.159C367.98 456.5 364.041 446.472 370.034 440.906L406.875 406.689Z" fill="#71B802"/>
<g id="Union_3">
<path fill-rule="evenodd" clip-rule="evenodd" d="M500.622 412.955C558.658 451.424 592.668 451.939 656.376 412.955H500.622ZM500.622 412.955H500.624H656.376H656.376V412.954C677.732 396.477 687.528 374.913 682.856 363.025C678.183 351.137 659.547 321.854 618.995 349.552H618.974C610.895 355.238 595.795 359.063 578.499 359.063C561.204 359.063 546.104 355.238 538.024 349.552H538.005C497.453 321.854 478.817 351.137 474.144 363.025C469.472 374.913 479.268 396.477 500.622 412.954V412.955Z" fill="#38D8EE" fill-opacity="0.5"/>
<path fill-rule="evenodd" clip-rule="evenodd" d="M500.622 412.955C558.658 451.424 592.668 451.939 656.376 412.955H500.622ZM500.622 412.955H500.624H656.376H656.376V412.954C677.732 396.477 687.528 374.913 682.856 363.025C678.183 351.137 659.547 321.854 618.995 349.552H618.974C610.895 355.238 595.795 359.063 578.499 359.063C561.204 359.063 546.104 355.238 538.024 349.552H538.005C497.453 321.854 478.817 351.137 474.144 363.025C469.472 374.913 479.268 396.477 500.622 412.954V412.955Z" fill="#38D8EE" fill-opacity="0.5"/>
</g>
<g id="Union_4">
<path fill-rule="evenodd" clip-rule="evenodd" d="M164.622 407.955C222.658 446.424 256.668 446.939 320.376 407.955H164.622ZM164.622 407.955H164.624H320.376H320.376V407.954C341.732 391.477 351.528 369.913 346.856 358.025C342.183 346.137 323.547 316.854 282.995 344.552H282.974C274.895 350.238 259.795 354.063 242.499 354.063C225.204 354.063 210.104 350.238 202.024 344.552H202.005C161.453 316.854 142.817 346.137 138.144 358.025C133.472 369.913 143.268 391.477 164.622 407.954V407.955Z" fill="#38D8EE" fill-opacity="0.5"/>
<path fill-rule="evenodd" clip-rule="evenodd" d="M164.622 407.955C222.658 446.424 256.668 446.939 320.376 407.955H164.622ZM164.622 407.955H164.624H320.376H320.376V407.954C341.732 391.477 351.528 369.913 346.856 358.025C342.183 346.137 323.547 316.854 282.995 344.552H282.974C274.895 350.238 259.795 354.063 242.499 354.063C225.204 354.063 210.104 350.238 202.024 344.552H202.005C161.453 316.854 142.817 346.137 138.144 358.025C133.472 369.913 143.268 391.477 164.622 407.954V407.955Z" fill="#38D8EE" fill-opacity="0.5"/>
</g>
<path id="Union_5" fill-rule="evenodd" clip-rule="evenodd" d="M364.735 315.55C401.995 289.657 423.832 289.31 464.735 315.55H364.735ZM364.735 315.55L364.736 315.55H464.734L464.735 315.55V315.55C478.446 326.64 484.735 341.155 481.735 349.156C478.735 357.157 466.77 376.867 440.735 358.224L440.721 358.224C435.534 354.398 425.839 351.823 414.735 351.823C403.63 351.823 393.935 354.398 388.748 358.224L388.735 358.224C362.7 376.867 350.735 357.157 347.735 349.156C344.735 341.155 351.024 326.641 364.735 315.55V315.55Z" fill="#FFC300"/>
<path id="Union_6" fill-rule="evenodd" clip-rule="evenodd" d="M393.807 305.494C408.11 296.893 416.492 296.778 432.192 305.494H393.807ZM393.807 305.494H393.808L393.808 305.494L393.808 305.494L432.192 305.494L432.192 305.494V305.494C437.455 309.178 439.87 313.999 438.718 316.657C437.566 319.315 432.974 325.862 422.98 319.669L422.975 319.669C420.984 318.398 417.262 317.543 413 317.543C408.738 317.543 405.016 318.398 403.025 319.669L403.02 319.669C393.026 325.862 388.434 319.315 387.282 316.657C386.13 313.999 388.545 309.178 393.807 305.494V305.494Z" fill="#FFDF00"/>
<path id="Union_7" fill-rule="evenodd" clip-rule="evenodd" d="M375.105 344.548C404.739 323.955 422.105 323.68 454.636 344.548H375.105ZM375.105 344.548H454.636V344.548C465.541 353.369 470.543 364.912 468.157 371.276C465.771 377.639 456.255 393.315 435.548 378.488H435.538C431.412 375.444 423.702 373.397 414.87 373.397C406.039 373.397 398.328 375.444 394.203 378.488H394.193C373.486 393.315 363.97 377.639 361.584 371.276C359.198 364.912 364.2 353.369 375.105 344.549V344.548Z" fill="#F79301"/>
</g>
</svg>
