<svg width="151" height="526" viewBox="0 0 151 526" fill="none" xmlns="http://www.w3.org/2000/svg">
<g id="TinaFront">
<g id="Head">
<path id="Vector 1" d="M98 177H55V157C54.999 143.03 49.1559 134.751 46 130.5C42.8441 126.249 38 111 38 94C38 64.5 52 55.5 80 55.5C108 55.5 119 63.5 119 94C119.582 111.433 115.088 125.218 111 130.5C106.912 135.782 98.7397 145.328 98 159V177Z" fill="#FFB27E" stroke="black"/>
<path id="Vector 2" d="M139 87C138.588 30 118.5 1 82.5 1C70.5 1 58.511 3.87078 49.5 9.5C18.5 28.866 15 57.5 15 88C15 110 26 137 32 137C35.4877 136.328 35.9872 134 35.5 128C38.7581 134.638 41.1615 136.899 47 137L50 136.5C40.5776 122.918 38.6449 113.309 38 94.5C37.0743 67.5 50 55.5 79.5 55.5C110.5 55.5 119 65 119 96C119 115.5 115.5 126 107.5 135.5C108.617 136.276 108.5 136 110 136C113.935 135.796 115.474 134.263 117.5 130C118.521 133.037 119.5 135 122 135C129.5 135 139.184 112.493 139 87Z" fill="#212121" stroke="#212121"/>
<path id="Vector 3" d="M100.5 71.5C108.161 71.5915 115.126 67.8203 121 61L69.5 41.5L50.5 61.5C46 66 46.5 71.5 54.5 71.5C62 71.5 68.0459 67.1751 75 60C70.9427 69.7078 71 71.5 78 71.5C84.5 71.5 91.1709 68.4232 97 63C93.1611 69.5252 94 71.5 100.5 71.5Z" fill="#212121" stroke="#212121"/>
<path id="Ellipse 1" d="M43.9386 53.6955C45.2427 55.4117 46.055 57.2142 46.3309 58.7243C46.6125 60.2654 46.3177 61.3438 45.6523 61.8494C44.987 62.3549 43.869 62.35 42.4597 61.6658C41.0788 60.9953 39.5598 59.7298 38.2558 58.0136C36.9517 56.2973 36.1394 54.4948 35.8635 52.9847C35.5819 51.4437 35.8767 50.3652 36.5421 49.8597C37.2074 49.3541 38.3254 49.359 39.7346 50.0432C41.1156 50.7137 42.6346 51.9792 43.9386 53.6955Z" fill="#F0E66B" stroke="black"/>
<path id="Vector 4" d="M52 76C55.8234 73.8549 59.5 72.5 64.5 72.5C66.5 72.5 68 73.5 68 73.5" stroke="black" stroke-width="1.5"/>
<path id="Vector 5" d="M109 76.5C105.177 74.3549 101.5 73 96.5 73C94.5 73 93 74 93 74" stroke="black" stroke-width="1.5"/>
<path id="Vector 6" d="M53 132C72.6161 129.556 83.989 128.805 105 131.5" stroke="black"/>
<path id="Vector 7" d="M71 139C76.4098 144.248 79.8281 144.959 87 140" stroke="black"/>
<path id="Vector 8" d="M87.5 114C87.5 131 70 131.5 70 115" stroke="black" stroke-width="1.5"/>
<path id="Vector 9" d="M76 96.5C76 93 76 92 78.5 92V85H78C76.638 85.0459 75.9772 85.2568 75 86C75 82 71.5 79 69 79H40C37 79 36 80 36 82.5C36 84.5 36.5 85 37.5 85C38.5 85 39 86 39 87V93.5C39 106 44 113.5 57.5 113.5C69.5 113.5 76 107 76 96.5Z" fill="black" stroke="black"/>
<path id="Vector 10" d="M80.5 96.5C80.5 93 80.5 92 78 92V85H78.5C79.862 85.0459 80.5228 85.2568 81.5 86C81.5 82 85 79 87.5 79H116.5C119.5 79 120.5 80 120.5 82.5C120.5 84.5 120 85 119 85C118 85 117.5 86 117.5 87V93.5C117.5 106 112.5 113.5 99 113.5C87 113.5 80.5 107 80.5 96.5Z" fill="black" stroke="black"/>
<path id="Vector 11" d="M68 84.5H46.5C43.5 84.5 42.5 85 42.5 87.5V98.5C42.5 105.5 49 110.5 57.5 110.5C65 110.5 72.5 106.5 72.5 98V90.5C72.5 86.5 71 84.5 68 84.5Z" fill="white" stroke="black"/>
<path id="Vector 12" d="M88.5 84H110C113 84 114 84.5 114 87V98C114 105 107.5 110 99 110C91.5 110 84 106 84 97.5V90C84 86 85.5 84 88.5 84Z" fill="white" stroke="black"/>
<circle id="Ellipse 2" cx="58" cy="99" r="2" fill="black"/>
<circle id="Ellipse 3" cx="98" cy="99" r="2" fill="black"/>
</g>
<g id="Body">
<path id="Vector 13" d="M80.5 172.5C65.5 172.5 57 167 54.5 151.5C38 164.5 26 180.5 21.5 200.5C25.4443 203.947 27.6278 205.092 31.5 206.5C31.5346 217.091 33.2896 220.498 37.5 225C28.8459 250.951 25.426 266.511 22.5 296.5C63.4527 302.933 87.2123 302.977 130.5 299C125.934 268.266 121.942 251.946 113 224C116.915 220.638 118.115 217.421 119 210C123.688 206.897 125.882 204.93 129 201C118.89 176.521 109 161 99 153.5C95.5 169 90 172.5 80.5 172.5Z" fill="#9ABCF0" stroke="black" stroke-width="1.5"/>
<path id="Vector 14" d="M31.5 206.5C34.4098 198.418 36.2208 194.341 41.5 189C45.7536 184.697 47.6708 182.092 50 177" stroke="black" stroke-width="1.5"/>
<path id="Vector 16" d="M119 210C116.903 200.176 116.312 196.731 110.5 189.5C106.883 185 106.497 182.195 106 177" stroke="black" stroke-width="1.5"/>
<path id="Vector 15" d="M37.5 225C42.5257 229.271 46.2714 230.148 54 230" stroke="black" stroke-width="1.5"/>
<path id="Vector 17" d="M113 224C107.974 228.271 104.729 230.148 97 230" stroke="black" stroke-width="1.5"/>
</g>
<g id="Legs">
<path id="Vector 19" d="M35.5 482.5L34.5 372.5L57.5 373L55 482.5H35.5Z" fill="#FFB27E" stroke="black" stroke-width="1.5"/>
<path id="Vector 20" d="M117 483L118 373L95 373.5L97.5 483H117Z" fill="#FFB27E" stroke="black" stroke-width="1.5"/>
<path id="Skirt" d="M9 366C12.7118 339.566 15.3594 324.489 22.5 296.5C66.5981 303.19 90.1027 303.315 130.5 299C136.777 325.224 139.004 339.888 141.5 366C120.5 381 30 380.5 9 366Z" fill="#1F446E" stroke="black" stroke-width="1.5"/>
<path id="Vector 21" d="M56.5 418.5C49.5 422.5 40.9055 422.744 35 419.5L35.5 484.5C40.5 487 50 488 55 485.5L56.5 418.5Z" fill="#F8FAF9" stroke="black" stroke-width="1.5"/>
<path id="Vector 22" d="M96 419C103 423 111.594 423.244 117.5 420L117 486C112 488.5 102.5 488.5 97.5 486L96 419Z" fill="#F8FAF9" stroke="black" stroke-width="1.5"/>
<path id="Vector 23" d="M35 437V429C43.7704 432.671 48.3091 432.03 56 428V436C47.1032 440.67 42.547 440.632 35 437Z" fill="#CE1D44" stroke="black"/>
<path id="Vector 24" d="M117 438V430C108.23 433.671 103.691 433.03 96 429L96.5 437C105.397 441.67 109.453 441.632 117 438Z" fill="#CE1D44" stroke="black"/>
</g>
<g id="Shoes">
<path id="Vector 25" d="M55 516V482C46.5605 484.01 42.1384 484.148 35 482C35.0997 493.862 34.1992 498.973 28.5 501.5C19.1141 506.228 15 510 15 518C15 523 18 525 24 525C34.5 525 44.2467 522.066 55 516Z" fill="#212121" stroke="black" stroke-width="1.5"/>
<path id="Vector 26" d="M97 516V482C105.439 484.01 109.862 484.148 117 482C116.9 493.862 117.801 498.973 123.5 501.5C132.886 506.228 137 510 137 518C137 523 134 525 128 525C117.5 525 107.753 522.066 97 516Z" fill="#212121" stroke="black" stroke-width="1.5"/>
<path id="Vector 27" d="M55 512V516C44.1326 521.855 37.7784 524.416 25 525C21.4861 525.244 17.5 524.5 16.5 523C15.5 521.5 14.5289 519.838 15 517.5C18.6896 520.576 21.1837 521.067 26.5 521C39.1706 520.84 45.2788 518.661 55 512Z" fill="#F8FAF9" stroke="black"/>
<path id="Vector 42" d="M97 512V516C107.867 521.855 114.222 524.416 127 525C130.514 525.244 134.5 524.5 135.5 523C136.5 521.5 137.471 519.838 137 517.5C133.31 520.576 130.816 521.067 125.5 521C112.829 520.84 106.721 518.661 97 512Z" fill="#F8FAF9" stroke="black"/>
<path id="Vector 28" d="M23 505C33 505.5 35.5 510.5 37 520C25.5194 521.885 20.4873 521.645 15 518C15.31 511.036 17.0523 508.192 23 505Z" fill="#F8FAF9" stroke="black"/>
<path id="Vector 41" d="M129 505C119 505.5 116.5 510.5 115 520C126.481 521.885 131.513 521.645 137 518C136.69 511.036 134.948 508.192 129 505Z" fill="#F8FAF9" stroke="black"/>
<path id="Vector 29" d="M42.5 488C40.552 486.677 39.2778 486.275 36.5 486.5" stroke="#F8FAF9"/>
<path id="Vector 35" d="M109 487.559C110.948 486.236 112.222 485.834 115 486.059" stroke="#F8FAF9"/>
<path id="Vector 30" d="M42 491.559C40.052 490.236 38.7778 489.834 36 490.059" stroke="#F8FAF9"/>
<path id="Vector 36" d="M109.5 491.118C111.448 489.795 112.722 489.393 115.5 489.618" stroke="#F8FAF9"/>
<path id="Vector 31" d="M42 495.559C40.052 494.236 38.7778 493.834 36 494.059" stroke="#F8FAF9"/>
<path id="Vector 37" d="M109.5 495.118C111.448 493.795 112.722 493.393 115.5 493.618" stroke="#F8FAF9"/>
<path id="Vector 32" d="M41 498.559C39.052 497.236 37.7778 496.834 35 497.059" stroke="#F8FAF9"/>
<path id="Vector 38" d="M110.5 498.118C112.448 496.795 113.722 496.393 116.5 496.618" stroke="#F8FAF9"/>
<path id="Vector 33" d="M39 501.559C37.052 500.236 35.7778 499.834 33 500.059" stroke="#F8FAF9"/>
<path id="Vector 39" d="M112.5 501.118C114.448 499.795 115.722 499.393 118.5 499.618" stroke="#F8FAF9"/>
<path id="Vector 34" d="M37 503.559C35.052 502.236 33.7778 501.834 31 502.059" stroke="#F8FAF9"/>
<path id="Vector 40" d="M114.5 503.118C116.448 501.795 117.722 501.393 120.5 501.618" stroke="#F8FAF9"/>
</g>
<g id="Arms">
<path id="Vector 43" d="M3 329C7.09303 280.299 10.7613 252.84 25 203L31.5 206.5C31.5553 214.995 32.4467 219.353 37.5 225.5C28.662 251.707 25.217 266.945 21.5 295C21.5 309.5 24.5 321.5 31.5 337.5C32.8125 340.5 31.5 342.062 29.5 341C25.8893 339.084 24.0405 337.752 21 335C20.9327 342.062 21.5452 346.001 23.5 353C24.1471 355.317 20.2154 357.305 18.5 353C16.0723 346.907 14.7635 343.153 12.5 336C12.5483 342.788 12.7944 346.373 14 352C15 360 9.28096 357 8.5 352C7.78648 347.432 7.33488 344.861 5 340C4.97082 342.793 4.07704 344.399 5 347.5C5 351 1 350.5 1 347.5V344C1.51215 337.922 2.5 334.949 3 329Z" fill="#FFB27E" stroke="black" stroke-width="1.5"/>
<path id="Vector 44" d="M147.5 328C143.407 279.299 142.239 252.34 128 202.5L119 210C118 218 118.053 218.353 113 224.5C121.838 250.707 125.283 265.945 129 294C129 308.5 126 320.5 119 336.5C117.688 339.5 119 341.062 121 340C124.611 338.084 126.459 336.752 129.5 334C129.567 341.062 128.955 345.001 127 352C126.353 354.317 130.285 356.305 132 352C134.428 345.907 135.736 342.153 138 335C137.952 341.788 137.706 345.373 136.5 351C135.5 359 141.219 356 142 351C142.714 346.432 143.165 343.861 145.5 339C145.529 341.793 146.423 343.399 145.5 346.5C145.5 350 149.5 349.5 149.5 346.5V343C148.988 336.922 148 333.949 147.5 328Z" fill="#FFB27E" stroke="black" stroke-width="1.5"/>
</g>
</g>
</svg>
