<svg width="200" height="337" viewBox="0 0 200 337" fill="none" xmlns="http://www.w3.org/2000/svg">
<g id="1">
<g id="Head">
<path id="Vector 7" d="M0 76.9963C8.12712 -16.3622 139.8 -26.9827 152.5 56.9963C182.217 55.789 190.442 74.142 199.5 105.996C200.019 114.81 197.767 117.888 190.5 120.996C190.5 120.996 192 186.496 190.5 192.996C189 199.496 183.54 210.534 174.5 215.996V250.996C174.5 267.996 146.5 266.496 146.5 250.996C146.5 235.496 120.5 236.996 120.5 236.996H88C88 236.996 67 241.996 67 257.496C67 272.996 39.5 273.496 39.5 257.496V236.996C36.3247 252.413 11.5998 249.396 11 235.496V88.4963C3.27605 85.7904 0.269742 83.5835 0 76.9963Z" fill="#3D3D3D"/>
<rect id="Rectangle 8" x="59" y="49" width="83" height="115" rx="41.5" fill="#FFB100"/>
<path id="Union" fill-rule="evenodd" clip-rule="evenodd" d="M141.991 113.411C141.997 113.108 142 112.804 142 112.5C142 87.9233 123.42 68 100.5 68C77.5802 68 59 87.9233 59 112.5C59 112.804 59.0028 113.108 59.0085 113.411C59.0029 113.606 59 113.803 59 114V117H54C51.2386 117 49 119.239 49 122V138C49 140.761 51.2386 143 54 143H59V161C59 172.046 67.9543 181 79 181H122C133.046 181 142 172.046 142 161V143H147C149.761 143 152 140.761 152 138V122C152 119.239 149.761 117 147 117H142V114C142 113.803 141.997 113.606 141.991 113.411Z" fill="#A56644"/>
<path id="Vector 3" d="M133.222 143L109.222 153C109.222 153 108.722 166.5 109.222 167.5C109.722 168.5 110.736 168.764 113.222 169C126.744 169.691 132.993 169.188 133.222 161V143Z" fill="#932626"/>
<g id="Rectangle 4">
<rect x="71" y="94" width="25" height="36" rx="12" fill="white"/>
<rect x="71" y="94" width="25" height="36" rx="12" fill="white"/>
</g>
<rect id="Rectangle 5" x="80" y="103" width="9" height="18" rx="4.5" fill="black"/>
<path id="Intersect" fill-rule="evenodd" clip-rule="evenodd" d="M111 152.259V154H127C129.344 154.001 130.026 153.369 130 151V144.343L111 152.259Z" fill="white"/>
<path id="Intersect_2" fill-rule="evenodd" clip-rule="evenodd" d="M118.949 169.21C118.983 168.813 119 168.409 119 168C119 161.925 115.194 157 110.5 157C110.021 157 109.552 157.051 109.095 157.15C108.99 161.207 108.905 166.866 109.222 167.5C109.722 168.5 110.736 168.764 113.222 169C115.302 169.106 117.209 169.184 118.949 169.21Z" fill="#FF4B4B"/>
<g id="Subtract">
<path fill-rule="evenodd" clip-rule="evenodd" d="M117 94C110.373 94 105 99.3726 105 106V118C105 123.657 108.914 128.399 114.181 129.667L127.537 125.285C129.082 123.265 130 120.74 130 118V106C130 99.3726 124.627 94 118 94H117Z" fill="white"/>
<path fill-rule="evenodd" clip-rule="evenodd" d="M117 94C110.373 94 105 99.3726 105 106V118C105 123.657 108.914 128.399 114.181 129.667L127.537 125.285C129.082 123.265 130 120.74 130 118V106C130 99.3726 124.627 94 118 94H117Z" fill="white"/>
</g>
<rect id="Rectangle 7" x="111" y="103" width="9" height="18" rx="4.5" fill="black"/>
<path id="Union_2" fill-rule="evenodd" clip-rule="evenodd" d="M102.865 117.69C102.88 117.584 102.887 117.476 102.887 117.366C102.887 116.059 101.828 115 100.521 115C99.2143 115 98.1549 116.059 98.1549 117.366C98.1641 122.218 97.4947 126.509 95.5545 135.064C95.1993 135.794 95 136.613 95 137.479C95 140.528 97.4719 143 100.521 143C103.57 143 106.042 140.528 106.042 137.479C106.042 136.501 105.788 135.582 105.342 134.785C103.37 127.09 102.553 122.65 102.865 117.69Z" fill="#8D4D2B"/>
<rect id="Rectangle 13" x="66" y="40" width="24" height="52" rx="12" fill="#3D3D3D"/>
</g>
<g id="Body">
<g id="Rectangle 9">
<rect x="77" y="180" width="49" height="24" fill="#FFB100"/>
<rect x="77" y="180" width="49" height="24" fill="url(#paint0_linear)"/>
</g>
<path id="Vector 9" d="M39.1505 306.093L44.0416 291.075C45.6067 286.269 49.9108 284.356 51.8672 284C56.636 286.524 66.7849 292.018 69.2304 293.805C71.6759 295.593 71.0645 299.432 70.4532 301.128C68.5783 304.521 64.3638 312.125 62.5052 315.402C60.6466 318.679 57.0028 318.174 55.4132 317.512C52.3156 316.478 45.3132 314.086 42.0851 312.796C38.8571 311.505 38.7837 307.789 39.1505 306.093Z" fill="#A56644"/>
<path id="Vector 10" d="M163.849 306.093L158.958 291.075C157.393 286.269 153.089 284.356 151.133 284C146.364 286.524 136.215 292.018 133.77 293.805C131.324 295.593 131.935 299.432 132.547 301.128C134.422 304.521 138.636 312.125 140.495 315.402C142.353 318.679 145.997 318.174 147.587 317.512C150.684 316.478 157.687 314.086 160.915 312.796C164.143 311.505 164.216 307.789 163.849 306.093Z" fill="#A56644"/>
<path id="Vector 8" d="M60.9944 226C66.0135 215.159 68.7237 210.326 77 204H126C135.608 211.125 138.444 215.999 142.994 226L162.994 278C168.931 293.037 140.907 311 127.994 288.5L113.994 261H85.9945C85.9945 261 86.4944 270 73.4945 288.5C60.4945 307 33.4945 292 39.9945 275C46.4944 258 60.9944 226 60.9944 226Z" fill="#FFB100"/>
<rect id="Rectangle 10" x="71" y="269" width="61" height="68" fill="#1CB0F6"/>
<rect id="Rectangle 11" x="71" y="261" width="61" height="8" fill="#3D3D3D"/>
</g>
</g>
<defs>
<linearGradient id="paint0_linear" x1="101.5" y1="180" x2="101.5" y2="204" gradientUnits="userSpaceOnUse">
<stop stop-color="#BE8400"/>
<stop offset="1" stop-color="#FFB100"/>
</linearGradient>
</defs>
</svg>
